<svg version="1.2" xmlns="http://www.w3.org/2000/svg" viewBox="0 0 1080 540" width="1080" height="540">
	<title>aleios hack logo 2</title>
	<style>
		.s0 { fill: #ad0014 } 
		.s1 { fill: #d3001a } 
		.s2 { fill: #fa001d } 
	</style>
	<g id="Folder 1 copy">
		<g id="icon">
			<path id="Layer" fill-rule="evenodd" class="s0" d="m831.8 461.2c-2.6 8.9-11.2 14.8-20.5 13.9-72.7-6.9-373.4-35.4-528-50-9.2-0.9-16.4-8-17.4-17.1-1-9.1 4.5-17.6 13.2-20.4 159.9-51.7 489.7-158.3 596.9-193 6.8-2.2 14.3-0.5 19.4 4.4 5.2 5 7.2 12.3 5.2 19.2-18.1 63.8-56 197.6-68.8 243z"/>
			<path id="Layer" fill-rule="evenodd" class="s1" d="m789.9 378.2c-2.6 9-11.2 14.9-20.5 14-72.7-6.9-373.3-35.4-528-50.1-9.1-0.9-16.4-8-17.4-17-1-9.1 4.5-17.6 13.3-20.5 159.8-51.6 489.6-158.3 596.8-192.9 6.8-2.2 14.3-0.5 19.4 4.4 5.2 4.9 7.2 12.3 5.3 19.1-18.1 63.9-56 197.6-68.9 243z"/>
			<path id="Layer" fill-rule="evenodd" class="s2" d="m743.9 299.9c-2.5 9-11.1 14.9-20.5 14-72.7-6.9-373.3-35.4-527.9-50.1-9.2-0.9-16.4-8-17.4-17-1-9.1 4.5-17.6 13.2-20.5 159.9-51.6 489.7-158.3 596.9-192.9 6.8-2.2 14.3-0.5 19.4 4.4 5.2 4.9 7.2 12.3 5.2 19.1-18.1 63.9-56 197.6-68.9 243z"/>
		</g>
	</g>
</svg>