<svg version="1.2" xmlns="http://www.w3.org/2000/svg" viewBox="0 0 1620 540" width="1620" height="540">
	<title>aleios hack logo 2</title>
	<style>
		.s0 { fill: #ad0014 } 
		.s1 { fill: #d3001a } 
		.s2 { fill: #fa001d } 
		.s3 { fill: #000000 } 
	</style>
	<g id="Folder 1 copy">
		<g id="icon">
			<path id="Layer" fill-rule="evenodd" class="s0" d="m668.8 461.2c-2.6 8.9-11.2 14.8-20.5 13.9-72.7-6.9-373.4-35.4-528-50-9.2-0.9-16.4-8-17.4-17.1-1-9.1 4.5-17.6 13.2-20.4 159.9-51.7 489.7-158.3 596.9-193 6.8-2.2 14.3-0.5 19.4 4.4 5.2 5 7.2 12.3 5.2 19.2-18.1 63.8-56 197.6-68.8 243z"/>
			<path id="Layer" fill-rule="evenodd" class="s1" d="m626.9 378.2c-2.6 9-11.2 14.9-20.5 14-72.7-6.9-373.3-35.4-528-50.1-9.1-0.9-16.4-8-17.4-17-1-9.1 4.5-17.6 13.3-20.5 159.8-51.6 489.6-158.3 596.8-192.9 6.8-2.2 14.3-0.5 19.4 4.4 5.2 4.9 7.2 12.3 5.3 19.1-18.1 63.9-56 197.6-68.9 243z"/>
			<path id="Layer" fill-rule="evenodd" class="s2" d="m580.9 299.9c-2.5 9-11.1 14.9-20.5 14-72.7-6.9-373.3-35.4-527.9-50.1-9.2-0.9-16.4-8-17.4-17-1-9.1 4.5-17.6 13.2-20.5 159.9-51.6 489.7-158.3 596.9-192.9 6.8-2.2 14.3-0.5 19.4 4.4 5.2 4.9 7.2 12.3 5.2 19.1-18.1 63.9-56 197.6-68.9 243z"/>
		</g>
		<g id="Folder 1">
			<g id="name">
				<path id="Layer" fill-rule="evenodd" class="s3" d="m932.1 340.9c0 2.9-1.2 5.7-3.2 7.7-2.1 2.1-4.9 3.2-7.8 3.2h-35.6c-6.1 0-11-4.9-11-10.9v-7h-0.6c-20.1 31.7-69.3 27.6-96.1 8.2-32.1-23.3-42.6-67.7-28.9-103.9 11.9-31.6 41.2-52.7 75.3-52.9 31.7-0.2 63.3 0.2 94.9 0.7 7.2 0.1 13 6 13 13.1 0 31.6 0 112.4 0 141.8zm-124.2-89.8c-11.3 18.3-5 45.5 15.8 53.6 5.1 2 10.3 2.8 15.7 2.8 5.4 0 10.6-0.8 15.7-2.8 20.8-8.1 27.1-35.3 15.8-53.6-6.8-10.8-18.9-16.2-31.5-16.2-12.6 0-24.7 5.4-31.5 16.2z"/>
				<path id="Layer" class="s3" d="m1007.9 340.9c0 2.9-1.2 5.7-3.2 7.7-2.1 2.1-4.9 3.2-7.8 3.2h-35.6c-6.1 0-11-4.9-11-10.9v-239c0-2.9 1.2-5.7 3.2-7.7 2.1-2.1 4.9-3.2 7.8-3.2h35.6c6.1 0 11 4.9 11 10.9z"/>
				<path id="Layer" fill-rule="evenodd" class="s3" d="m1198.8 274.8c0 3.3-2.7 6-6 6h-115.1c0 23.2 12.3 35.8 36 35.8 10.9 0 19.1-3.2 25.2-11.3 1.6-2.2 4.2-3.5 7-3.5 8.4 0 26.4 0 38.5 0.1 3 0 5.8 1.5 7.4 4 1.6 2.5 1.9 5.6 0.6 8.3-5.7 12.7-15.1 22.4-26.5 29.4-14.9 9.2-33.2 13.5-51.9 13.5-53.7 0-93.9-30.1-93.9-85.7 0-24.8 7.9-45.1 21.6-59.7 15.9-17.1 39.8-26.4 68.2-26.4 56.3 0 88.9 34.5 88.9 89.5zm-53.5-27c-2.8-15.4-17-25.5-32.5-25.5-16.8 0-30.7 8.8-34.2 25.5z"/>
				<path id="Layer" class="s3" d="m1277.2 340.9c0 2.9-1.2 5.7-3.2 7.7-2.1 2.1-4.9 3.2-7.8 3.2-10.2 0-25.4 0-35.6 0-2.9 0-5.7-1.1-7.8-3.2-2-2-3.2-4.8-3.2-7.7 0-29.4 0-110 0-139.4 0-2.9 1.2-5.6 3.2-7.7 2.1-2 4.9-3.2 7.8-3.2 10.2 0 25.4 0 35.6 0 2.9 0 5.7 1.2 7.8 3.2 2 2.1 3.2 4.8 3.2 7.7 0 29.4 0 110 0 139.4zm-28.8-180.1c-17.9 0-32.3-14.4-32.3-32.1 0-17.7 14.4-32 32.3-32 17.8 0 32.3 14.3 32.3 32 0 17.7-14.5 32.1-32.3 32.1z"/>
				<path id="Layer" fill-rule="evenodd" class="s3" d="m1464.5 271.4c0 54.6-40.3 85.7-86.5 85.7-45.9 0-86.5-30.7-86.5-85.7 0-55 40.3-86.1 86.5-86.1 46.2 0 86.5 31.1 86.5 86.1zm-119.2 0c0 20.4 12 36.1 32.7 36.1 20.7 0 32.8-15.7 32.8-36.1 0-19.8-12.1-36.5-32.8-36.5-20.7 0-32.7 16.7-32.7 36.5z"/>
				<path id="Layer" class="s3" d="m1590 224.9c-2 3.9-6.8 5.6-10.9 4-7.7-2.9-16.4-4.7-23.8-4.7-6.6 0-18 2.9-18 11 0 11 18 12.6 25.9 14.2 26.9 5.3 47.1 17.9 47.1 47.7 0 42.5-38.9 60-76.5 60-20.2 0-40.1-5-57.9-14.2-4.3-2.2-5.9-7.5-3.7-11.7 3.6-6.9 8.9-17 12.6-24.2 1.1-2 3-3.6 5.3-4.3 2.3-0.7 4.7-0.4 6.8 0.7 11.5 6.4 26.4 11.6 37.8 11.6 7.3 0 18.1-3.4 18.1-12.2 0-12.6-18.1-13.2-36.1-17.9-18-4.7-36-13.5-36-42.4 0-39.6 36-57.2 71.4-57.2 15 0 30 1.9 44.2 6.6 2.4 0.9 4.3 2.7 5.2 5.1 0.9 2.3 0.8 5-0.4 7.2-3.4 6.3-7.8 14.7-11.1 20.7z"/>
			</g>
			<path id="the" class="s3" aria-label="the"  d="m791.6 103v-12h40.5v12h-13.9v72h-12.7v-72zm63.1 72h-12.7v-84h12.7v35.4h15.1v-35.4h12.8v84h-12.8v-36.6h-15.1zm41.8 0v-84h36.1v12h-23.4v23.4h18.6v12h-18.6v24.6h23.4v12z"/>
			<path id="Hack" class="s3" aria-label="Hack"  d="m1242.5 453h-12.7v-84h12.7v35.4h15.1v-35.4h12.7v84h-12.7v-36.6h-15.1zm69.6 0l-2.8-18.6h-13.7l-2.7 18.6h-12.7l13.9-84h17l13.9 84zm-14.7-30.8h10.3l-5.2-35.2zm56.3 32q-8.9 0-14.4-5.5-5.5-5.5-5.5-14.4v-46.5q0-8.9 5.5-14.4 5.5-5.6 14.4-5.6 8.9 0 14.4 5.6 5.5 5.5 5.5 14.4v9.8h-12.4v-9.8q0-3.6-2.1-5.8-2-2.2-5.3-2.2-3.2 0-5.2 2.2-2.1 2.2-2.1 5.8v46.5q0 3.6 2.1 5.8 2 2.1 5.2 2.1 3.3 0 5.3-2.1 2.1-2.2 2.1-5.8v-12h12.4v12q0 8.9-5.5 14.4-5.5 5.5-14.4 5.5zm62.4-1.2l-13.3-34.5-4.8 9.2v25.3h-12.7v-84h12.7v34.1l16.8-34.1h13.7l-17.9 35.7 19.2 48.3z"/>
		</g>
	</g>
</svg>