<svg version="1.2" xmlns="http://www.w3.org/2000/svg" viewBox="0 0 1080 1080" width="1080" height="1080">
	<title>hack 1 (5) (1)</title>
	<style>
		.s0 { fill: #ffffff } 
		.s1 { fill: #0e0826 } 
		.s2 { fill: #9fd3f8 } 
		.s3 { fill: #43aaf2 } 
		.s4 { fill: #cae9ff } 
		.s5 { fill: #cdebb0 } 
	</style>
	<g id="Background">
		<path id="Path 0" class="s0" d="m0 540v540h1080v-1080h-1080z"/>
		<path id="Path 1" class="s1" d="m231 480.5c-2.5 0.8-6 2.6-7.8 4-1.7 1.4-4.3 4.4-5.6 6.8-1.4 2.4-2.6 6.7-3 10.2-0.3 3.3-0.1 9.1 0.4 13 0.7 5 1.9 8.5 4.2 12.3 1.8 2.9 9 11.2 16.1 18.5 7 7.3 13.4 14.7 14.2 16.4 0.8 1.8 1.5 6 1.5 9.3 0 3.3-0.5 7-1 8.3-0.6 1.2-2.1 2.8-3.5 3.5-1.4 0.6-3.8 1.2-5.5 1.2-1.7 0-3.8-0.4-4.8-0.9-0.9-0.4-2.5-2.7-3.5-5-0.9-2.2-1.7-5.9-1.7-8.1 0-2.2-0.6-4.3-1.3-4.6-0.6-0.4-4.6-0.3-8.7 0.1l-7.5 0.8c1 13.5 2 17.8 3.6 21.2 1.5 3 4 6 6.4 7.8 2.2 1.5 5.6 3.3 7.5 3.8 1.9 0.6 7.6 0.9 12.6 0.7 8-0.3 9.6-0.7 13.9-3.3 3.1-1.9 6.1-4.9 7.9-7.9 3-4.8 3.1-5.2 3.1-17.5-0.1-11.9-0.2-12.9-3-18.6-2.2-4.3-6.9-10-17-20.5-10.5-10.9-14.4-15.5-15.3-18.5-0.6-2.2-1.2-5.1-1.2-6.5 0-1.4 0.4-3.9 1-5.5 0.5-1.6 2.1-3.6 3.5-4.2 1.4-0.7 3.4-1.3 4.5-1.3 1.1 0 3.1 0.6 4.5 1.3 1.4 0.6 3 2.6 3.5 4.2 0.6 1.6 1 4 1 5.3 0 1.2 0.6 2.5 1.2 2.8 0.7 0.4 4.7 0.4 8.8-0.1l7.5-0.7c-1.3-10.3-2.2-14.7-2.9-16.3-0.8-1.6-2.6-4.2-4.2-5.7-1.6-1.5-4.9-3.6-7.4-4.7-2.5-1.1-7.4-2.2-11-2.5-4.4-0.4-7.9-0.1-11 0.9zm71.5-0.8c-1.1 0.2-4 1.1-6.5 1.8-3 0.9-5.9 2.9-8.8 6-2.3 2.5-5 6.2-5.9 8.3-1.6 3.3-1.8 7.9-1.7 44.7l0.1 41c3.9 7 6.6 10.3 8.4 11.9 1.9 1.6 5.2 3.7 7.4 4.7 2.8 1.3 6.4 1.9 12.2 1.9 6.8 0 9.2-0.4 13-2.4 2.7-1.3 6-3.5 7.4-4.7 1.4-1.3 3.6-4.4 5-6.9l2.4-4.5 0.6-81c-4.8-9.6-7.4-13.2-9.8-15-2.1-1.6-5.6-3.4-7.8-4.1-2.2-0.6-6.3-1.4-9-1.7-2.8-0.3-5.9-0.3-7 0zm453.4 1.1c-2.5 0.9-5.9 2.7-7.7 3.9-1.8 1.3-4.4 4.4-5.9 7l-2.8 4.8c-0.5 81.1-0.3 85.8 1.2 88.3 0.9 1.5 2.8 4.4 4.2 6.5 1.7 2.5 4.5 4.8 8.1 6.5 4.4 2.1 7 2.6 13 2.6 5.6 0 8.7-0.6 12.5-2.3 2.8-1.2 6.1-3.2 7.3-4.4 1.3-1.2 3.3-3.9 4.3-5.9 1-2.1 2.3-6.6 2.9-10 0.5-3.5 1-9.3 1-13v-6.8h-16.5c-1.2 15.3-2.1 19.5-3.3 21.5-1 1.6-2.9 3.4-4.3 3.9-1.3 0.5-4 0.6-5.9 0.3-2.3-0.4-4.2-1.6-5.5-3.4-1.9-2.7-2-4.4-2-40.3 0-35.9 0.1-37.6 2-40.3 1.3-1.8 3.2-3 5.5-3.4 1.9-0.3 4.6-0.2 5.9 0.3 1.4 0.5 3.3 2.3 4.3 3.9 1.1 1.8 2.1 6.2 2.6 10.9l0.7 7.9c12.4-1 16.2-1.5 16.5-1.8 0.3-0.4 0-5.2-0.6-10.8-0.7-6.2-1.9-11.8-3.1-14.2-1.1-2.2-3.8-5.3-5.9-7-2.2-1.6-5.5-3.5-7.4-4.1-1.9-0.7-6.4-1.5-10-1.8-4.8-0.4-7.7-0.1-11.1 1.2zm-409.9 8.7v8.5h19v101h18v-101h19v-17h-56zm140 50.5v59h17c0-57.3 0.4-70.2 1-70.5 0.6-0.3 2.5 4.3 4.3 10.2 1.8 6 6.7 21.9 10.8 35.6l7.4 24.7h17.5v-118h-17c-0.2 46.1-0.5 60.6-1 62l-0.7 2.5c-1.5-3.9-6-18.4-10.9-34.8l-8.9-29.7h-19.5zm109 0v59h18v-51h21v51h18v-118h-18v50h-21v-50h-18zm90-58.8c0 0.2-3.6 21.4-8 47.3-4.5 25.9-9 52-10.1 58-1 6-1.9 11.3-1.9 11.7 0 0.5 4 0.8 9 0.8h9c0.7-5 1.5-10.9 2.2-16.3l1.3-9.7h20c2.1 15.9 3 21.7 3.3 23.3 0.7 2.7 0.8 2.7 8.9 2.7 4.6 0 8.5-0.3 8.7-0.8 0.3-0.4-1.5-12.4-3.9-26.7-2.4-14.3-6.6-39.3-9.4-55.5-2.8-16.2-5.3-30.7-5.6-32.3l-0.5-2.7c-17.8 0-23 0.1-23 0.2zm124 58.8v59h18v-37.5c5-8.4 7-10.9 7.5-10.9 0.5-0.1 4.6 10.7 9.1 23.9l8.1 24c14.8 0.4 17.5 0.1 17.8-0.8 0.3-0.6-3.9-14-9.3-29.7-5.5-15.7-10.7-31.2-11.7-34.5l-1.7-6c17.9-34.9 22.8-45.4 22.4-45.8-0.4-0.4-4.4-0.7-8.9-0.7h-8.3c-17.4 34.4-23.1 44.5-23.8 44.7-0.9 0.2-1.2-4.7-1.2-22.2v-22.5h-18z"/>
		<path id="Path 2" class="s2" d="m595.9 102.8c-3.6 3.7-10.2 11-14.6 16.2-4.5 5.2-13.6 14.9-20.4 21.6-9.8 9.6-15.5 14.2-27.4 21.9-8.2 5.4-21.7 13.1-30 17.2-8.2 4-19.5 8.9-25 10.8-5.5 1.9-12.9 4.1-16.5 4.9-3.6 0.8-13.7 2.7-22.5 4.1-8.8 1.5-20.3 3.8-25.5 5.1-5.2 1.4-10.3 2.7-11.2 2.9-1 0.3-1.8 1.1-1.8 1.8 0 0.6 1.3 2.8 2.8 4.7 1.5 1.9 3.6 4.8 4.7 6.6 1.1 1.7 3.2 4.5 4.8 6.3 1.5 1.7 3.4 3.1 4.2 3.1 0.8 0 7.2-1.3 14.3-2.9 7-1.7 18.3-4.2 25.2-5.6 6.9-1.4 14.8-3.2 17.5-4 2.8-0.8 7.5-1.8 10.5-2.4 3-0.5 8.9-2.2 13-3.6 4.1-1.5 13.6-5.8 21-9.5 7.4-3.7 18.2-9.8 24-13.5 5.8-3.7 13.4-9 17-11.8 3.6-2.8 10-8.5 14.4-12.7 4.3-4.1 11.7-12 16.4-17.5 4.8-5.5 14.5-16 21.7-23.3 7.4-7.6 16.8-16 21.8-19.5 4.8-3.4 8.8-6.5 8.7-6.9 0-0.5-9.1-0.8-20.3-0.8h-20.3zm232.7 83.3c-8.3 7.7-16.5 14.2-26.3 20.6-7.8 5.1-18.2 11.3-23 13.7-4.8 2.4-9.3 5-9.9 5.8-0.6 0.7-3.5 7.4-6.3 14.9-2.9 7.4-5.7 14.2-6.2 15.2-0.4 1-0.8 2-0.8 2.3 0 0.2 0.6 0.5 1.5 0.5 0.8 0 5.4-1.7 10.2-3.7 4.8-1.9 14.4-6.4 21.3-9.8 6.8-3.4 17.2-9.3 23-13 5.7-3.8 14.3-9.9 19-13.6 4.6-3.7 11.8-10.1 15.8-14.1l7.4-7.3c-6.8-13-9.9-18.1-11.2-19.7l-2.5-3zm-515.2 76.2c-3.9 3.9-12.2 13.3-18.6 20.7-6.4 7.4-14.4 16.3-17.9 19.6-3.5 3.4-10.2 9.2-14.8 12.9-4.7 3.7-10.6 7.9-13 9.3-2.5 1.4-6.3 3.8-8.5 5.2-2.2 1.5-10.1 5.9-17.5 9.8-7.5 3.9-19.1 9.1-25.8 11.6-6.7 2.5-13 4.6-14 4.6-1 0-3.8 0.7-6.2 1.5-2.5 0.9-9.9 2.5-16.5 3.6-6.6 1.1-13.4 2.2-15 2.5-1.7 0.2-6.5 1.2-10.7 2.2-5.3 1.2-8.1 2.3-9 3.7-0.7 1.1-5 8.4-9.5 16.3-4.6 7.8-8.3 14.7-8.3 15.2 0 0.6 0.9 0.7 2.2 0.4 1.2-0.4 5.9-2.1 10.3-3.9 4.4-1.8 12-4.5 17-5.9 4.9-1.3 13-3.2 18-4 4.9-0.9 14.1-2.5 20.5-3.6 6.3-1.1 14.6-2.9 18.5-4 3.8-1.1 10.1-3.1 14-4.4 3.8-1.3 13-5.2 20.5-8.6 7.4-3.5 16.2-8 19.5-10 3.3-2.1 9.8-6.3 14.5-9.5 4.6-3.1 11.4-8 15-10.9 3.5-2.9 8.5-7.6 11-10.6 2.4-2.9 7.4-8.5 10.9-12.4 3.6-3.9 7-7.3 7.5-7.5 0.6-0.3 2.2-1.8 3.5-3.5 1.4-1.7 6.4-7.1 11.3-12.1l8.8-9c-5.6-15.5-7.6-21.5-8.1-23.2-0.5-1.8-1.2-3.3-1.7-3.3-0.4 0-4 3.3-7.9 7.3zm278.9 35.6c-4.3 3.7-9.8 9-12.2 11.7l-4.5 4.8c5.4 2.2 11.8 3.7 17.7 4.7l10.8 1.9c8.1-6.7 13.9-11 18.2-13.8 4.3-2.9 7.8-5.4 7.8-5.7 0-0.3-2.2-1.4-4.8-2.6-2.6-1.1-8.3-2.9-12.7-4-4.4-1.1-8.5-2.5-9-3-0.6-0.5-1.6-0.9-2.3-0.9-0.7 0-4.7 3.1-9 6.9zm321.7 32.7c-6.3 4.2-13.9 9.7-16.9 12.2-3.1 2.6-8.6 7.6-12.4 11.2-3.8 3.6-12 12.4-18.2 19.5-6.3 7.2-14.8 16.7-18.9 21.3l-7.5 8.2c2.9 8.1 5 13.8 6.6 17.8 1.6 4 3.1 7.3 3.4 7.3 0.2-0.1 5.2-4.9 11-10.8 5.7-5.9 14.3-15.3 19.1-20.8 4.8-5.5 13.8-15 20-21 8.5-8.3 14.9-13.3 25.6-20.3 14.1-9.1 14.2-9.2 13.2-11.9-0.6-1.6-3.4-6.6-6.3-11.2-2.8-4.7-5.6-8.6-6.2-8.8-0.5-0.2-6.2 3.1-12.5 7.3zm-384.4 48.1c-2.2 0.2-7.6 0.8-12 1.4-4.4 0.5-12.5 2.2-18 3.6-5.5 1.4-16.3 5.3-24 8.6-7.7 3.3-18.7 9-24.5 12.6-5.7 3.6-14.4 10.1-19.2 14.4-4.9 4.2-9.3 8.6-9.8 9.7-0.6 1.1-0.7 2.2-0.3 2.4 0.4 0.2 8.9-1.1 18.8-3 9.9-1.8 21.6-4.3 26-5.4 4.4-1.2 10.4-3.2 13.5-4.5 3-1.2 7.9-3.3 11-4.5 3-1.2 9.7-4.5 15-7.2 5.2-2.8 12.8-7.1 17-9.6 4.1-2.5 11.6-7.5 16.7-11.1 5-3.6 8.9-6.9 8.7-7.3-0.2-0.5-3.7-0.7-7.7-0.6-4 0.1-9 0.3-11.2 0.5zm-204.5 67.1c-4.2 2.8-12 9-17.5 13.9-5.5 4.9-11.4 10.7-13.2 12.9-1.7 2.1-3.6 4.9-4.2 6.2l-1.1 2.2c10.4-3.8 13.3-4.1 21.2-3.8l9.7 0.3c4-10.8 5.5-15.3 5.9-17 0.5-1.6 2.3-6.1 4.1-10 1.8-3.8 3.1-7.6 2.9-8.3-0.2-1-2.7 0.2-7.8 3.6zm448-2.8c-0.9 0.5-4.5 2.1-8 3.4-3.6 1.4-7.9 2.8-9.5 3.2-1.7 0.4-3.6 1.1-4.3 1.5-0.7 0.5-1 1.7-0.6 2.7 0.3 0.9 2.2 5.9 4.2 11.1 2 5.2 4.3 9.6 5.2 9.9 0.8 0.3 6.6-1.2 12.8-3.4 6.3-2.1 11.6-4.2 11.8-4.6 0.2-0.5-1.1-5.2-2.8-10.5-1.7-5.4-3.7-10.8-4.5-12-0.7-1.3-1.7-2.3-2.1-2.2-0.4 0-1.4 0.4-2.2 0.9zm-96.5 24.9c-2.8 1-8.8 3.7-13.3 6l-8.2 4.1v30l24.3-12.5c4-16.5 4.3-17 6.9-17.2 1.5-0.2 2.8-0.5 2.8-0.8 0-0.3-1.3-3-2.8-6-1.5-3-3.2-5.5-3.7-5.4-0.6 0-3.3 0.9-6 1.8zm-51.2 27.8c-2.1 1.4-5.1 3.8-6.6 5.2-2.8 2.6-2.8 2.7-2.8 15.1v12.5c7.4-0.8 10.8-1.8 12.3-2.8l2.8-1.7c0.1-23.8-0.2-30.1-0.8-30.4-0.6-0.3-2.7 0.7-4.9 2.1zm395.7 15.9c-5.3 3.6-11.6 8.2-14 10.2-2.5 2.1-8.1 7.1-12.4 11.2-4.4 4.1-12.5 12.9-18.2 19.5-5.6 6.6-15.8 17.5-22.6 24.1-9.7 9.6-15.5 14.2-27.3 21.9-8.3 5.4-21.8 13.1-30 17.2-8.3 4-20.4 9.2-27 11.4-6.6 2.3-12.6 4.6-13.3 5.2-0.7 0.7-1.5 2.8-1.8 4.7-0.3 1.9-1.9 6.7-3.5 10.5-1.6 3.9-3 8-3 9.3 0 1.3 0.6 2 1.3 1.8 0.7-0.2 3.1-0.7 5.3-1.1 2.2-0.4 7.8-1.6 12.5-2.6 4.6-1.1 9.6-2.4 11-2.9 1.3-0.5 6.5-2.3 11.5-4.1 4.9-1.7 15-6.2 22.5-9.9 7.4-3.7 18.2-9.7 24-13.5 5.7-3.7 13.4-9 17-11.8 3.5-2.8 10-8.5 14.3-12.7 4.4-4.1 11.8-12 16.5-17.5 4.7-5.5 14.4-16 21.6-23.3 10.4-10.6 15.8-15.2 26.3-22.3 7.3-4.9 13.3-9.1 13.3-9.4 0-0.3-1.4-3.1-3-6.2-1.6-3.2-4.4-8-6.2-10.7-1.9-2.7-3.8-5.1-4.3-5.2-0.6-0.2-5.3 2.6-10.5 6.2zm-439 24.5c-4.7 5.5-14.5 15.9-21.8 23l-13.2 12.9c-0.5 25.2-0.9 28.3-2 29-0.9 0.5-5.4 1-10 1-4.7 0-9.1-0.4-9.8-0.8-0.6-0.4-2-3-3-5.9l-1.7-5.2c-10 5-14 7.6-15.5 9.2-1.4 1.5-3.4 2.7-4.5 2.7-1.1 0-9 2.5-17.5 5.6-8.6 3.1-19.4 6.4-24 7.4-4.7 1-15.1 3-23 4.5-8 1.5-17.9 3.5-22 4.5-4.2 1-8.8 2.1-10.3 2.4l-2.7 0.6c9.8 12.8 13.3 17.6 14 18.9 1.2 2 2 2.3 5 1.8 1.9-0.3 14.7-2.6 28.5-5.2 13.7-2.5 29-5.7 34-7.1 4.9-1.4 10.6-3.4 12.7-4.5 2.1-1 4.3-1.9 5-1.9 0.7 0 7.8-3.3 15.8-7.3 7.9-4.1 19-10.2 24.5-13.7 5.5-3.5 13.3-8.9 17.5-12 4.1-3.2 13.4-11.9 20.7-19.4l13.3-13.6c0-28.7-0.4-37-0.8-37-0.4 0-4.6 4.6-9.2 10.1zm-465.5 36.4c-5.5 1.3-15 4.1-21 6.3-6.1 2.2-16.6 6.7-23.3 10.1-6.7 3.3-12.3 6.4-12.3 6.9 0 0.4 2.8 5.4 6.2 11.2 3.4 5.8 6.3 10.7 6.5 11 0.2 0.3 8.1-3.2 17.6-7.7 10.5-4.9 22-9.5 29.3-11.7 6.6-1.9 16.2-4.2 21.5-5.1 5.2-0.9 13.1-2.3 17.5-3.1 4.4-0.7 10.3-1.8 13.2-2.4 2.9-0.5 5.1-1.3 4.9-1.7-0.3-0.5-3.5-1.1-7.3-1.6-3.8-0.4-10.9-1.7-15.8-2.9-6.2-1.5-10.6-3.3-14-5.7-2.8-1.9-6.5-4-8.3-4.8-1.8-0.7-3.6-1.3-4-1.2-0.4 0-5.2 1.1-10.7 2.4zm218 89.5c-3.9 2.9-8.7 6.7-10.7 8.4l-3.6 3.1c5.2 7 7.8 10.6 9.2 12.5 1.5 1.9 3.6 4.8 4.8 6.3l2.3 2.8c4.6-4.4 8-7.3 10.5-9.3 2.4-1.9 5.9-4.2 7.7-5.1l3.3-1.7c-9-12.6-12.7-17.6-14-19.3l-2.5-2.9zm422.5-1.2c-3.6 2.1-11.3 6.9-17 10.8-5.8 3.9-14.6 10.4-19.5 14.5-5 4.2-12.2 10.9-16.1 15-3.9 4-10.2 11.2-14.2 15.8-3.9 4.7-12.2 13.5-18.4 19.7-6.2 6.1-14.3 13.3-17.8 16-3.6 2.7-10.4 7.3-15 10.3-4.7 2.9-13.3 7.9-19 11-5.8 3.1-15.5 7.7-21.5 10.3-6.1 2.5-14.9 5.7-19.5 7.1-4.7 1.5-18.7 4.4-31 6.7-12.4 2.2-23.3 4.2-24.3 4.5-1.6 0.4-1.7 1.9-1.7 13.9v13.5c12.7-3.8 20.4-5.6 25.2-6.5l8.8-1.5c0-11.2 0.4-16.3 0.9-18.5 0.5-2.2 1.6-4.4 2.3-5 0.8-0.5 5.6-1.6 10.8-2.3 5.2-0.7 16.9-3.1 26-5.3 9-2.2 18.5-4.9 21-6 2.4-1.1 6.7-2.7 9.5-3.5 2.7-0.9 6.5-2.4 8.5-3.4 1.9-1 6.8-3.3 11-5.2 4.1-1.9 11.7-5.9 17-8.9 5.2-3 13.1-8 17.6-10.9 4.5-3 13.5-9.7 20-15 6.4-5.2 14.7-12.4 18.3-16 3.6-3.5 10.6-11.4 15.6-17.3 4.9-6 10.8-13.3 13-16.3 2.2-2.9 6.2-8.9 9-13.3 2.7-4.5 6-9.8 7.3-11.8 1.2-2.1 2-4.3 1.7-5-0.3-0.7-0.9-1.3-1.3-1.2-0.4 0-3.7 1.7-7.2 3.8zm-490.7 69.4c-1.7 1.2-4.9 3.6-7 5.2-2.1 1.7-4.5 3.7-5.3 4.4-0.9 0.8-3.6 2.6-6 4-2.5 1.4-6.3 3.7-8.5 5.2-2.2 1.4-10.1 5.8-17.5 9.7-7.5 3.9-18.5 8.9-24.5 11.2-6.1 2.3-13.1 4.6-15.5 5.1-2.5 0.5-6.8 1.6-9.5 2.3-2.8 0.8-5.2 2-5.3 2.7-0.2 0.8 2 5.3 4.8 9.9 2.7 4.7 5.8 9.3 6.7 10.1 1.4 1.3 2.7 1.4 7.3 0.7 3-0.5 10.6-2.7 17-4.7 6.3-2.1 17.5-6.6 25-10.1 7.4-3.4 16.2-7.9 19.5-10 3.3-2 9.1-5.8 13-8.4 3.8-2.5 10.9-7.6 15.7-11.3 4.8-3.7 8.7-7.1 8.7-7.5 0-0.4-3.2-4.9-7.1-10-4-5.1-7.5-9.6-7.8-10-0.4-0.4-2 0.3-3.7 1.5zm611.1 96.1c-5.5 3.5-12.6 8.1-15.9 10.3-3.3 2.1-8.9 6.3-12.5 9.2-3.6 3-9.8 8.6-13.9 12.5-4 3.9-11.5 12.1-16.6 18.1-5.2 6.1-14.5 16-20.7 22.2-6.2 6.1-14.3 13.3-17.8 16-3.6 2.7-10.4 7.3-15 10.3-4.7 2.9-13 7.8-18.5 10.8-5.5 2.9-14.3 7.2-19.5 9.4-5.3 2.3-13.4 5.4-18 7-4.7 1.6-18.2 4.7-30 6.9-11.9 2.2-26.5 5.3-32.5 6.9-6.1 1.6-14.4 4.1-18.5 5.6-4.2 1.5-10.7 4.3-14.5 6.2l-7 3.6c6.2 1.4 26 1.6 48 1.3 32.1-0.3 41.3-0.7 47-2 3.8-0.9 10.6-2.6 15-3.7 4.4-1.2 10.4-3.2 13.5-4.4 3-1.3 7.9-3.3 11-4.6 3-1.2 10.2-4.7 16-7.8 5.7-3 14.7-8.2 20-11.5 5.2-3.3 12.8-8.6 17-11.7 4.1-3.2 12.2-10.7 18-16.6 5.8-6 13.4-14.2 16.9-18.4 3.4-4.1 12.9-14.2 21-22.5 13.3-13.5 15.5-16.3 22.7-28.5 4.4-7.4 10-17 12.4-21.3 3-5.2 4.1-8.1 3.4-8.7-0.7-0.6-4.6 1.4-11 5.4zm-454.1 32.9c-4.4 4.5-13.2 14.3-19.6 21.7-6.4 7.5-14.4 16.3-17.9 19.7-3.5 3.4-10.2 9.1-14.8 12.8-4.7 3.7-10.6 7.9-13 9.3-2.5 1.5-6.3 3.8-8.5 5.3-2.2 1.4-10.1 5.8-17.5 9.7-7.5 3.9-18.5 8.9-24.5 11.2-6.1 2.3-12.8 4.6-15 5-2.2 0.5-6.7 1.5-10 2.3-3.3 0.9-7.3 1.8-8.8 2.2-2.3 0.4-2.6 0.9-2.1 2.8 0.4 1.2 2.8 6 5.5 10.5 2.7 4.5 5.6 8.7 6.6 9.2 1.2 0.6 4.7 0.3 10.8-0.9 4.9-1 13.7-3.4 19.5-5.3 5.7-1.9 16.5-6.3 24-9.8 7.4-3.4 14.6-6.9 16-7.8 1.3-0.8 7-4.5 12.5-8 5.5-3.6 12.7-8.5 16-11 3.3-2.4 11.1-9.4 17.3-15.6 6.2-6.1 14.6-15.1 18.6-20.1 4.1-4.9 12-13.5 17.7-19 5.7-5.6 13.6-12.7 17.6-15.8 4-3.1 7.1-6 6.9-6.4-0.2-0.4-2.4-1.4-4.8-2.1-2.4-0.7-8.2-2.6-12.8-4.1-4.7-1.6-9.2-3.1-10.1-3.5-1-0.4-4 2-9.6 7.7z"/>
		<path id="Path 3" class="s3" d="m347.5 174.3c-1.6 0.7-5 2.4-7.5 3.9-2.5 1.5-6.2 3.4-8.3 4.2-2 0.9-3.8 2-3.9 2.6-0.2 0.5-2.8 2.2-5.7 3.7-3 1.5-6.3 3.9-7.4 5.3-1.6 2.1-1.9 4.5-2 16.5-0.2 9.8 0.2 15 1.2 17.5 0.7 1.9 2.2 5.5 3.3 8 1.1 2.5 3.4 8.3 5 13 1.6 4.7 3.5 9.4 4.2 10.5 0.7 1.1 2.1 4.5 3.1 7.5 1 3 2.9 7.7 4.2 10.5 1.8 3.7 2.2 5.5 1.6 7-0.6 1.1-3 3.7-5.4 5.7-2.4 2.1-5 3.8-5.6 3.8-0.7 0-2 1.2-2.9 2.7-0.8 1.6-3.1 3.9-5.1 5.3-2 1.4-6.4 5.6-10 9.5-3.5 3.9-7.1 7.7-8 8.5-0.9 0.8-2.2 2.2-3 3-0.7 0.8-4.4 5.2-8.1 9.7-3.7 4.5-8.8 11-11.4 14.5-2.5 3.5-8 11.6-12.2 18-4.2 6.5-7.6 12.1-7.6 12.5 0 0.5-1.5 3-3.3 5.8-1.8 2.7-4.1 7-5.1 9.5-1 2.5-2.7 5.7-3.7 7.2-1 1.6-1.9 3-1.9 3.3 0 0.3-2.2 6-4.9 12.7-2.7 6.8-6.4 17-8.3 22.8-2 5.8-4.3 13.9-5.2 18-1 4.1-2.4 9.5-3.2 12-0.8 2.5-1.7 6.6-2.1 9.3-0.6 3.5-0.5 4.7 0.5 4.7 0.6 0 2.4-0.8 4-1.9 1.5-1 4.3-2.3 6.2-2.9 1.9-0.6 6-1.4 9-1.7 4-0.5 7.3-0.2 11.9 1.1 4.5 1.3 7.8 3.1 10.9 5.9 2.5 2.2 5.4 5.8 6.4 8 1.1 2.2 2.2 6.9 2.5 10.5 0.2 3.6 0 7.1-0.4 7.8-0.4 0.7-2.8 1.7-5.3 2.2-2.5 0.5-6.9 0.9-9.8 1-4.2 0-5.4-0.4-6.2-2-0.6-1.1-1-3.4-1-5 0-1.7-0.9-3.9-2-5-1.1-1.1-2.9-2-4-2-1.1 0-2.9 0.9-4 2-1.3 1.3-2 3.4-2 5.7 0 2.1 1 5.7 2.2 8.1 1.3 2.3 8.2 10.2 15.4 17.5 9 9.1 13.9 14.9 15.8 18.7 2.5 5.1 2.7 6.5 2.9 19.6 0.2 14 0.2 14.1-2.8 18.9-1.6 2.7-4.9 6.4-7.3 8.2-2.3 1.8-5.9 3.7-8 4.3-2 0.5-7.9 1-13 1-8.3 0-9.7-0.3-14.7-3-3-1.6-6.1-3-6.8-3-0.9 0-1 1.4-0.4 5.7 0.4 3.2 1.4 7.2 2.2 8.8 0.7 1.6 1.7 5 2 7.5 0.4 2.5 2.9 11.2 5.7 19.5 2.7 8.2 5.6 16 6.4 17.2 0.8 1.3 1.4 3.1 1.4 4 0 1 0.6 2.7 1.3 3.8 0.8 1.1 1.7 3.1 2 4.5 0.4 1.4 4.4 9.7 9 18.5 4.6 8.8 12.7 22.5 18 30.5 5.3 8 12.4 18.1 15.8 22.5 3.4 4.4 16.9 18.7 30 31.7 13.2 13.1 23.9 24.5 23.9 25.3 0 0.8-0.9 3.4-2 5.7-1 2.4-3.1 7.2-4.6 10.8-1.4 3.6-3.9 10.1-5.5 14.5-1.7 4.4-4.7 12-6.9 17l-4 9v31.5c4.4 4.3 10.4 7.9 16.1 10.9 5.7 2.9 11.1 5.8 11.9 6.5 0.8 0.6 3.3 2.1 5.5 3.3 2.2 1.3 5.1 2.2 6.5 2.3 1.4 0 4-0.9 5.7-2 1.8-1.1 3.9-2 4.5-2 0.7 0 4.1-1.8 7.5-4 4.7-3 8.1-6.3 13.3-13.3 3.8-5 7.9-10.3 9-11.7 1.1-1.4 5.1-6.5 8.9-11.5 3.7-5 8.1-10.9 9.7-13.3 1.6-2.4 3.8-4.6 4.9-4.9 1.1-0.3 3.1-0.6 4.5-0.6 1.4 0.1 4.1 0.7 6 1.5 1.9 0.8 5.7 2.3 8.5 3.3 2.7 0.9 7.9 2.6 11.5 3.6 3.6 1.1 9.4 2.8 13 3.9 3.6 1.1 12.4 3.1 19.5 4.6 7.1 1.4 17.5 3.1 23 3.7 5.5 0.5 11.2 0.7 12.7 0.4 2.4-0.6 2.9-1.3 3.4-5 0.3-2.3 0.4-16.5 0.2-31.5-0.2-22.9-0.5-27.4-1.8-28.2-0.8-0.4-5.5-1.4-10.5-2-4.9-0.7-10.6-1.6-12.5-2-1.9-0.5-9.8-2.5-17.5-4.5-7.7-2-14.4-3.9-15-4.3-0.6-0.3-3.7-1.6-7-2.8-3.3-1.2-10.5-4-16-6.3-5.5-2.4-10.7-4.9-11.5-5.6-0.8-0.8-2.2-1.4-3-1.4-0.8 0-2.2-0.7-3-1.6-0.8-0.9-1.9-1.6-2.5-1.6-0.6 0-3-1.5-5.5-3.3-2.5-1.8-5.4-3.6-6.5-3.9-1.1-0.3-5.9-3.6-10.8-7.2-4.8-3.6-9.1-6.5-9.7-6.5-0.6 0-5.6-4-11.3-8.9-5.6-4.9-15.2-14-21.2-20.2-6.1-6.3-13.5-14.3-16.4-17.9-3-3.6-7.2-9.1-9.5-12.4-2.3-3.2-5.3-7.7-6.9-10-1.5-2.2-5.3-8.6-8.4-14.1-3.2-5.5-7-12.7-8.6-16-1.6-3.3-4.4-9.8-6.3-14.5-1.8-4.7-4.7-12.5-6.4-17.5-1.8-5-3.6-11.3-4.2-14-0.5-2.8-2.2-7-3.8-9.5-1.6-2.5-3.7-6.5-4.7-9-1.5-3.9-1.8-9.1-2.1-39.5-0.2-19.3 0.1-38.1 0.6-42 0.7-5.1 2-8.6 4.5-13 2-3.3 4.3-8.7 5.2-12 0.8-3.3 3.5-11.6 5.9-18.5 2.4-6.9 5.9-16.1 7.8-20.5 1.9-4.4 6.5-13.9 10.2-21 3.8-7.1 8.7-15.7 11-19 2.2-3.3 5.8-8.2 7.9-11 2.1-2.7 5.7-7.5 8-10.5 2.2-3 11.1-12.5 19.7-21 8.5-8.5 17.5-16.8 20-18.5 2.5-1.6 4.7-3.3 5-3.7 0.3-0.3 2.1-1.7 4-3 1.9-1.3 7.1-4.9 11.5-7.8 4.4-3 14.7-9 23-13.3 8.2-4.3 18.8-9.2 23.5-10.9 4.7-1.6 11.2-3.9 14.5-5 3.3-1.1 9.6-3 14-4.3 4.4-1.3 10.1-2.8 12.7-3.4 2.7-0.6 9-1.5 14-2.1 5.1-0.5 10.7-1.4 12.3-1.8 1.6-0.5 4-1.4 5.2-2l2.3-1.2-0.5-61.5c-6.9-1.7-12.3-1.4-23-0.2-8.3 0.9-18.1 2.6-22 3.7-3.9 1-12.9 3.3-20 4.9-7.1 1.6-16.1 4.1-20 5.6-3.9 1.4-8.8 3.2-11 4-2.2 0.7-4.6 1-5.4 0.7-0.8-0.4-2.7-2.6-4.3-5-1.5-2.3-3.1-4.2-3.6-4.2-0.4 0-1.8-2-3.2-4.5-1.4-2.5-2.8-4.6-3.3-4.5-0.4 0-0.7-0.7-0.7-1.5 0-0.8-0.3-1.5-0.8-1.5-0.4 0-2.8-2.7-5.5-6-2.6-3.3-4.7-6.5-4.7-7 0-0.6-0.7-1.2-1.5-1.5-0.8-0.3-1.5-1.2-1.5-2 0-0.8-0.3-1.5-0.8-1.5-0.4 0-2.1-2.1-3.8-4.7-1.7-2.6-5.1-6.5-7.5-8.6-2.4-2-5-3.7-5.7-3.7-0.6 0-2.4-0.9-4-1.9-1.5-1.1-4.7-2.7-7.2-3.5-2.5-0.9-5.4-1.6-6.5-1.5-1.1 0-3.4 0.6-5 1.2zm364.7 3.7c-6.2 3-10.7 5.9-11.4 7.2-0.6 1.3-2.2 3.4-3.5 4.8-1.2 1.4-5.9 7.4-10.3 13.5-4.4 6-8.9 12-10 13.2-1.1 1.3-2 2.5-2 2.8 0 0.3-2.7 3.9-6 8-3.3 4.1-6.7 7.8-7.5 8.2-0.8 0.5-5.6-0.5-11.2-2.3-5.4-1.7-10.7-3.6-11.8-4.2-1.1-0.6-6.5-2.2-12-3.6-5.5-1.4-12.7-2.8-16-3.2-3.3-0.4-6.5-1-7-1.5-0.5-0.5-7.3-1.7-15-2.8-7.7-1.2-16.6-2.1-19.7-2.1-3.2 0-6.7 0.4-7.8 1-1.9 1-2 2-1.9 29.2 0 15.6 0.4 29.6 0.7 31.1 0.6 2.2 1.6 3 5.2 4.2 2.5 0.7 7 1.6 10 2 3 0.3 9.5 1.3 14.5 2.1 5 0.9 11.5 2.5 14.5 3.5 3 1 7.5 2.3 10 2.9 2.5 0.6 7.6 2.2 11.5 3.6 3.9 1.4 8.4 3.2 10 3.9 1.6 0.7 4.6 1.9 6.5 2.6 1.9 0.7 7.9 3.4 13.3 6.1 5.3 2.6 9.9 5.2 10.2 5.8 0.3 0.6 1.3 1 2.3 1 0.9 0 6.4 3.1 12.2 6.9 5.8 3.9 11.3 7.7 12.3 8.5 0.9 0.9 2.2 1.6 2.7 1.6 0.5 0 1 0.6 1 1.2 0 0.7 1.7 2.2 3.8 3.4 2 1.2 10.2 8.4 18.1 16 7.9 7.6 17.9 18.1 22.2 23.1 4.4 5.1 7.9 9.7 7.9 10.3 0 0.5 0.6 1.3 1.4 1.7 0.7 0.5 3.9 4.8 7 9.8 3.1 4.9 5.6 9.6 5.6 10.2 0 0.7 0.4 1.4 0.8 1.5 0.5 0.2 1.5 1.5 2.3 2.9 0.8 1.4 4.2 8.1 7.7 15 3.4 6.8 6.3 13.1 6.3 13.9 0 0.8 0.6 2.4 1.5 3.5 0.8 1.1 3.2 7.4 5.4 14 2.1 6.6 5.5 19 7.4 27.5 2 8.5 4 19.3 4.6 24 0.6 4.7 1.3 15 1.6 23 0.5 10.1 0.1 19.6-1 31.2-0.9 9.3-2.5 20.1-3.5 24-1.1 4-2.7 10.9-3.6 15.3-1 4.4-3.3 12.3-5.2 17.5-1.9 5.2-5 12.9-6.9 17-1.8 4.1-3.4 8.2-3.4 9 0 0.8-1.6 4-3.6 7-1.9 3-3.8 6.5-4.2 7.8-0.4 1.2-1.3 2.5-1.9 2.7-0.7 0.3-1.3 1.2-1.3 2 0 0.8-2.5 5.2-5.4 9.7-3 4.6-7.6 11-10.1 14.3-2.5 3.3-6.5 8.5-8.9 11.5-2.4 3-10.8 12-18.7 19.9-7.9 7.9-16.6 16.2-19.4 18.3-2.7 2.1-8 6.2-11.7 9.1-3.7 2.8-10 7.3-14 9.9-4 2.5-8.2 5-9.3 5.4-1.1 0.4-3.4 1.8-5 3-1.6 1.2-7.2 4.3-12.2 6.8-5.1 2.5-10.1 4.6-11 4.6-1-0.1-2.5 0.6-3.3 1.5-0.8 0.9-3.7 2.3-6.5 3.1-2.7 0.9-7.7 2.7-11 4-3.3 1.3-11.4 3.8-18 5.5-6.6 1.7-15.1 3.7-19 4.5-3.9 0.7-9.5 1.6-12.5 2-3 0.3-6.2 0.7-7 0.9-0.9 0.3-1.8 2.3-2.3 5.2-0.4 2.6-0.7 16-0.6 29.8 0.1 13.7 0.4 26.1 0.8 27.5 0.7 2.5 0.9 2.5 11.2 2.5 6.4 0 12.9-0.7 16.9-1.7 3.6-0.9 12.1-2.7 19-3.9 6.9-1.2 13-2.6 13.5-3 0.5-0.5 5.7-2.2 11.5-3.8 5.8-1.6 14.1-4.4 18.5-6.1 5.3-2.2 8.9-3 10.5-2.6 1.5 0.3 3.9 2.6 6 5.7 1.9 2.9 4 5.9 4.5 6.8 0.5 0.9 1.2 1.8 1.5 2.1 0.3 0.3 2.3 2.8 4.5 5.5 2.2 2.8 4.5 5.7 5 6.6 0.5 0.9 2.7 3.9 4.8 6.7 2 2.9 4.2 5.2 4.7 5.2 0.5 0 1 0.7 1 1.5 0 0.8 2.1 4 4.8 7.1 3.7 4.4 6.6 6.6 13.5 10 4.8 2.4 8.9 4.9 9.2 5.4 0.3 0.5 2.2 1 4.3 1 2.2-0.1 5.6-1.2 8.7-3 2.8-1.6 6.6-3.8 8.5-4.8 1.9-1 7.7-4.3 12.8-7.3 6.1-3.5 9.5-6.1 9.7-7.4 0.2-1.1 0.8-4.5 1.4-7.5 0.6-3 1.2-8.6 1.2-12.5 0-6.2-0.6-8.4-5.1-19.5-2.9-6.9-5.7-14.5-6.5-17-0.7-2.5-2.4-6.8-3.7-9.5-1.4-2.8-3.6-8.1-4.9-12-1.3-3.9-2.7-7.1-3.1-7.3-0.5-0.1-0.8-1-0.8-2 0-0.9-0.4-2.2-1-2.7-0.7-0.7 0.5-2 3.7-4.2 2.7-1.7 13.2-11.6 23.5-22 10.3-10.3 20.2-20.8 22-23.3 1.8-2.5 3.6-4.6 4-4.8 0.5-0.1 0.8-0.9 0.8-1.7 0-0.8 0.3-1.5 0.8-1.5 0.4 0 2.8-2.7 5.5-6 2.6-3.3 4.7-6.2 4.7-6.5 0-0.3 1.6-2.6 3.5-5.3 2-2.6 3.5-5 3.5-5.5 0-0.4 0.5-1.3 1-2 0.6-0.6 2.2-3 3.6-5.2 1.5-2.2 4-6.5 5.6-9.5 1.6-3 3.3-6 3.7-6.5 0.5-0.5 2.2-3.7 3.8-7 1.7-3.3 4.9-10 7.1-15 2.3-5 5-11.5 6.1-14.5 1-3 3.7-10.9 6-17.5 2.3-6.6 4.1-13 4.1-14.3 0-1.2 0.5-3.2 1.2-4.5 0.6-1.2 1.7-4.9 2.4-8.2 0.7-3.3 1.3-6.6 1.4-7.3 0-0.7-1.4-1.2-3.7-1.2-2.1 0-4.3-0.4-4.9-0.8-0.6-0.4-1.6-1.6-2.1-2.7-0.6-1.1-4.1-10.5-7.7-21-3.7-10.5-6.9-19.7-7.2-20.5-0.5-1.1-1.1-0.5-2.2 2-1.1 2.6-1.7 8.5-2.1 22.3-0.5 15.2-0.9 19-2.1 19.7-0.8 0.5-5.3 1-10 1-4.7 0-9.2-0.5-10-1-1.3-0.8-1.5-8.7-1.5-61 0-52.3 0.2-60.2 1.5-61 0.8-0.5 5.3-1 10-1 4.7 0 9.2 0.5 10 1 1.2 0.7 1.6 4.1 1.8 17.2 0.2 9 0.7 16.6 1 17 0.4 0.4 4.5-6.5 9.2-15.5 4.7-8.9 9.3-17 10.3-17.9 1-1.1 3.2-1.8 5.7-1.8 2.2 0 4-0.2 4-0.5 0-0.3-0.7-4-1.5-8.3-0.9-4.2-1.9-8.2-2.4-8.7-0.5-0.6-1.1-2.8-1.4-5-0.4-2.2-2.2-8.7-4.1-14.5-1.9-5.8-4.5-13.6-5.9-17.5-1.3-3.9-3.3-8.8-4.4-11-1.2-2.2-4.7-9.5-7.9-16.3-3.3-6.7-6.1-12.2-6.4-12.2-0.3 0-1-1.4-1.7-3.2-0.7-1.8-3.8-7.4-6.9-12.3-3.1-5-6-9.2-6.4-9.5-0.4-0.3-1.4-1.9-2.3-3.5-0.8-1.6-2.5-3.9-3.6-5-1.2-1.1-2.2-2.3-2.1-2.8 0-0.4-2.5-3.7-5.5-7.5-3-3.7-6.9-8.5-8.7-10.6-1.8-2.2-9.8-10.7-17.8-18.9-8-8.1-17.3-16.9-20.7-19.5-3.5-2.6-6.5-5.5-6.8-6.5-0.3-0.9 0.9-5.4 2.6-10 1.7-4.5 3.7-9.3 4.4-10.7 0.8-1.4 2.1-4.8 3-7.5 1-2.8 3.2-8.6 5-13 1.8-4.4 4.6-11.4 6.1-15.5 2.4-6.2 2.8-8.8 2.6-15-0.2-4.1-0.5-7.7-0.7-8-0.2-0.3-0.9-3-1.5-6-0.6-3-1.8-6.3-2.8-7.3-0.9-1-2-1.8-2.4-1.7-0.5 0-2.9-1.3-5.5-2.9-2.7-1.6-6-3.1-7.5-3.5-1.6-0.3-2.8-1.1-2.8-1.6 0-0.6-1.2-1.6-2.7-2.4-1.6-0.8-5-2.6-7.8-4-2.7-1.5-6.4-2.6-8-2.6-1.7 0-7.6 2.2-13.3 5zm-506.7 317.6c-1.1 0.3-3.8 0.9-6 1.4-2.2 0.6-13.9 2.2-26 3.5-12.1 1.4-23.1 3.2-24.5 3.9-1.4 0.7-6.6 3.9-11.5 7-4.9 3.1-9.3 5.6-9.8 5.6-0.4 0-0.7 10.1-0.7 22.5v22.5c3.9 4.6 5.4 6 6 6 0.6 0 2.9 1.5 5.3 3.4 2.3 1.8 5.3 3.9 6.7 4.6 1.4 0.7 6.6 2.2 11.5 3.3 4.9 1 12.8 2.3 17.5 2.8 4.7 0.5 13.1 1.5 18.8 2.4 5.6 0.8 12.5 1.5 15.2 1.5h5c-1.5-5.8-2-10.2-2-13.5 0-3.3 0.5-6.7 1-7.5 0.5-0.8 3.3-1.8 6.2-2.2 2.9-0.3 6.9-0.7 8.8-0.7 1.9 0 4.1 0.3 4.8 0.7 0.7 0.4 1.7 3.8 2.3 7.7 0.6 3.8 1.3 7.6 1.7 8.3 0.4 0.7 2.5 1.5 4.7 1.9 3.4 0.5 4.2 0.3 5.8-1.8 1.1-1.6 1.7-4.2 1.7-7.7 0-2.8-0.7-6.7-1.5-8.5-0.8-1.7-8-10.2-16.1-18.7-11.9-12.7-14.9-16.5-16.6-21-1.4-3.9-2.2-8.8-2.5-16.8-0.4-9.7-0.6-11.2-2.1-11.1-0.9 0.1-2.6 0.3-3.7 0.5zm660.8 1.3c-1 1.1-5.1 8.6-9.2 16.8l-7.3 14.8 19.7 56.7c17.1-1 28.5-2.2 36.5-3.3 8-1.1 17.2-2.7 20.5-3.5 3.8-1 8.7-3.4 13.3-6.5 3.9-2.7 7.7-4.9 8.2-4.9 0.6 0 1-0.7 1-1.5 0-0.8 0.6-1.6 1.3-1.8 0.9-0.3 1.3-5.9 1.5-22.8l0.3-22.4c-16.7-11-22.5-14.5-23.6-14.8-1.1-0.4-5.8-1.1-10.5-1.6-4.7-0.6-14.6-1.7-22-2.6-7.4-0.9-16-2.3-19-3.1-3-0.8-6.3-1.4-7.2-1.4-1 0-2.5 0.9-3.5 1.9z"/>
		<path id="Path 4" fill-rule="evenodd" class="s4" d="m467 96.3c63.5 0 118.2 0.2 127.5 1.2l-4.5 5c-2.5 2.8-7.2 8.2-10.4 12-3.3 3.8-10.9 12.1-17 18.3-6.1 6.1-11.7 11.2-12.3 11.2-0.7 0-1.3 0.4-1.3 1 0 0.6-1 1.9-2.2 3-1.3 1.1-3.8 2.7-5.5 3.5-1.8 0.8-3.3 1.7-3.3 2 0 0.3 0.5 0.3 1 0 0.5-0.3 1-0.3 1 0 0 0.3-3 2.2-6.7 4.4-3.8 2.1-10.6 6.2-15.3 9-4.7 2.8-9.3 5.1-10.2 5.1-1.2 0-1.5 0.4-1 1.2 0.5 0.9 0.2 1-1 0.5-1-0.4-2-0.3-2.3 0.3-0.3 0.6-4.4 3-9.2 5.3-4.9 2.4-12.4 5.6-16.8 7-4.4 1.4-11.8 3.5-16.5 4.6-4.7 1.1-12.6 2.7-17.5 3.6-4.9 1-14.3 2.8-20.8 4.1-6.4 1.3-15 3.3-18.9 4.4-4 1.1-7.6 1.6-7.9 1.2-0.3-0.4-2.6-3.6-5.1-7.2-2.5-3.6-6.7-8.9-9.4-11.9-3.8-4.2-7.1-6.5-14.9-10.3-8.6-4.3-10.6-4.9-14.5-4.5-3.1 0.4-8.9 2.9-18.9 8.4-8 4.3-16.3 9.6-18.7 11.8-4 3.8-4.2 4.3-4.9 11.5-0.4 4.1-0.5 11.1-0.2 15.5 0.2 4.6 1.3 10.4 2.4 13.5 1.2 3 3.3 8 4.7 11 1.4 3 2.6 6.1 2.6 6.8 0 0.6-2.6 3.8-5.7 7-3.1 3.1-11 11.8-17.4 19.2-6.4 7.4-17 18.7-23.5 25.1-7.7 7.5-15.7 14.2-22.7 18.8-5.9 3.9-10.7 6.9-10.7 6.6 0-0.3-1.7 0.8-3.8 2.4-2 1.5-5.2 3.6-7 4.5-1.7 0.9-3.9 1.6-4.7 1.6-0.8 0-1.5 0.4-1.5 1 0 0.6-0.8 1.3-1.8 1.6-0.9 0.4-5.8 2.6-10.7 5-4.9 2.4-13.7 5.9-19.5 7.8-5.8 2-16.8 4.7-24.5 6.2-7.7 1.4-18.2 3.3-23.3 4.2-5.1 1-9.5 1.4-9.8 1-0.2-0.5 6.6-13.1 15.2-28 8.6-15 28.5-49.6 44.2-76.8 15.7-27.2 34.9-60.5 42.7-74 7.8-13.5 22-38.1 49-85l34-0.3c18.7-0.1 86-0.3 149.5-0.4zm186.5-0.2l142-0.1 18.7 32.7c10.2 18.1 19.6 34.7 20.7 37 1.2 2.4 2.1 4.9 2.1 5.5 0 0.7-3.7 4.8-8.3 9-4.5 4.3-8.8 7.8-9.5 7.8-0.6 0-1.2 0.4-1.2 1 0 0.6-1 1.9-2.3 3-1.2 1.1-3.7 2.7-5.5 3.5-1.7 0.8-3.2 1.7-3.2 2 0 0.3 0.6 0.2 1.2-0.3 0.8-0.4 1-0.3 0.6 0.3-0.3 0.6-3.2 2.3-6.4 4-3.2 1.7-6.3 3.6-6.9 4.2-0.5 0.7-4.6 3.3-9 5.8-4.4 2.5-8.8 4.5-9.8 4.5-0.9 0-1.9 0.7-2.2 1.5-0.3 0.8-1.1 1.5-1.8 1.5q-1.2 0-2.9-11.7c-1-6.5-2.6-13.3-3.5-15.1-1.4-2.7-4.2-4.6-13.8-9.5-6.6-3.4-12.1-6.5-12.2-7-0.2-0.4-2.7-1.8-5.6-3.2-2.8-1.4-6.9-2.5-9-2.5-2.5 0-7.1 1.7-25.2 10.8l-19.5 25.8c-10.7 14.3-19.6 26.1-19.8 26.4-0.2 0.3-6.2-1.5-13.5-3.9-7.3-2.4-15.5-5-18.2-5.8-2.8-0.7-10.6-2.4-17.5-3.8-6.9-1.3-13.2-2.6-14-2.9-0.8-0.3-6.5-1.3-12.5-2.1-6-0.8-14.1-1.5-17.8-1.5-5.9 0-7.1 0.3-11.7 5v30c0 16.5 0.4 30.8 0.9 31.7 0.5 1 1.9 2.5 3.2 3.4 1.5 1 8.4 2.6 17.4 3.9 8.2 1.2 15.1 2.3 15.3 2.4 0.2 0-2.7 3-6.3 6.6-3.7 3.6-7.5 6.9-8.6 7.5-1.1 0.6-2.2 1.7-2.5 2.5-0.3 0.8-1.9 3.1-6.9 8.7l-8.5-1c-5.8-0.7-16.1-0.6-32.5 0.2-14.7 0.7-26.3 1.7-30 2.7-3.3 0.8-10.3 2.4-15.5 3.5-5.2 1.2-11.5 2.9-14 3.9-2.5 0.9-7.2 2.8-10.5 4-3.3 1.3-11.2 4.7-17.5 7.7-6.3 3-14.1 7.1-17.2 9.1-3.2 2.1-10.6 7-16.5 11.1-7.9 5.5-15.3 12-27.8 24.6-9.4 9.4-19.4 20.5-22.3 24.6-3 4-8.2 11.6-11.5 16.8-3.4 5.2-7.1 10-8.2 10.5-1.1 0.6-2.2 1.4-2.5 1.8-0.3 0.3-4.2 3.2-8.8 6.2-4.5 3.1-8.5 5.6-9 5.6-0.4 0.1-5.3 4.4-11 9.8-5.6 5.3-10.5 9.5-10.8 9.2-0.3-0.3 0.2-3 1.2-6 0.9-3 3.7-10.2 6.1-16 2.4-5.8 7.2-15.9 10.6-22.5 3.5-6.6 6.8-12.7 7.5-13.5 0.7-0.8 3.1-4.4 5.4-8 2.2-3.6 7.6-11 11.8-16.5 4.3-5.5 13.8-16.1 21.2-23.5 7.4-7.4 15.9-15.3 18.9-17.6 3-2.2 9.5-7 14.4-10.7 4.9-3.6 13.7-9.2 19.5-12.4 5.8-3.3 15.2-8 21-10.7 5.8-2.6 11.3-5.2 12.2-5.7 1-0.5 2.6-0.9 3.5-0.9 1-0.1 3.4-0.9 5.3-1.9 1.9-1 8.7-3.4 15-5.1 6.3-1.8 13.2-3.7 15.2-4.2 2.1-0.4 10-1.7 17.6-2.8 8.9-1.3 14.8-2.7 16.9-4 3.3-2 3.3-2.1 3.9-11.3 0.3-5 0.4-19.5-0.1-55.2l-10-5.2 5.5-3c3-1.7 8.6-4.5 12.5-6.4 3.9-1.9 7.9-4.2 9-5.2 1.1-1 4.7-3.4 8-5.4 3.3-1.9 9.3-6.1 13.4-9.2 4.1-3.1 11.3-9.1 16-13.4 4.7-4.3 8.9-7.7 9.3-7.7 0.5 0 0.6-0.4 0.3-1-0.3-0.6 0.3-1.2 1.2-1.5 1-0.3 2.4-1.6 3-3 0.7-1.4 4.1-5.8 7.4-9.8 3.4-3.9 11.2-12.3 17.3-18.5 6.1-6.3 13.8-13.5 17-16 3.3-2.6 9.6-7.1 14-9.9zm202 105.9c0.3 0 1.6 1.7 2.9 3.8 1.3 2 12.5 21 24.8 42.2 12.4 21.2 26.6 45.7 31.6 54.5 5.1 8.8 9.2 16.4 9.2 16.8 0 0.4-0.6 0.7-1.5 0.7-0.8 0-2.6 1-3.9 2.3-1.4 1.2-5.1 3.6-8.3 5.2-3.1 1.7-6.6 3.9-7.7 4.9-1.1 1-5.4 4.5-9.6 7.8-4.1 3.2-7.8 6.2-8.2 6.6-0.4 0.4-2.4 2.5-4.5 4.6-2.1 2.1-4.3 4.4-4.9 5-0.7 0.6-4.7 5.4-9 10.6-4.3 5.2-11.5 13.3-16.1 18-4.5 4.7-8.3 8.9-8.3 9.3 0 0.4-1.1 1.4-2.5 2.2-2.2 1.4-2.5 1.4-3.3-0.2-0.5-1-3.3-6.3-6.1-11.8-2.9-5.5-9.9-17-15.6-25.5-5.6-8.5-13.4-19.3-17.1-23.9-3.8-4.7-10.7-12.6-15.4-17.6-4.6-5-14.4-14.7-21.7-21.5-7.4-6.9-13.3-13.3-13.3-14.2 0-1 0.9-3.5 1.9-5.5 1.1-2.1 2.2-5.2 2.5-7 0.5-2.3 1.5-3.7 3.6-4.8 1.7-0.8 5.1-1.8 7.6-2.2 2.4-0.4 4.5-1 4.4-1.3 0-0.3 1.5-1.1 3.3-1.8 1.8-0.8 8.2-3.7 14.2-6.4 6.1-2.7 11.9-5.4 13-6 1.1-0.6 3.4-1.8 5-2.7 1.6-0.9 3.9-2.4 5-3.4 1.1-1 4.1-3 6.5-4.4 2.5-1.4 6.8-4.2 9.5-6.1 2.8-2 8.2-6.1 12-9.2 3.9-3.2 9.5-8 12.5-10.8 3.1-2.8 5.9-5.1 6.3-5.2 0.4 0 0.7-0.7 0.7-1.5 0-0.8 0.3-1.5 0.5-1.5zm-218 102c1.1 0 6.1 2 11 4.4 5 2.4 13.3 6.7 18.5 9.7 5.3 2.9 13.4 8 18 11.2 4.7 3.3 11.7 8.5 15.5 11.6 3.9 3 12.4 10.7 18.9 17.1 6.5 6.3 15.8 16.5 20.6 22.5 4.7 6.1 10.1 13.3 12 16 1.8 2.8 5.2 8.2 7.5 12 2.4 3.9 6.7 11.9 9.7 17.8 5.2 10.6 5.3 10.9 3.3 12.3-1.1 0.8-6 2.8-11 4.5-4.9 1.7-10.1 3.2-11.4 3.3-2.2 0.1-3.3-1.3-9-12-3.6-6.7-9.7-16.8-13.6-22.5-3.8-5.7-10.6-14.4-15.1-19.3-4.4-5-11.4-12.2-15.5-16.1-4.1-3.8-10.6-9.7-14.4-13.1-3.8-3.3-10.3-8.2-14.5-10.8-4.1-2.7-9.4-6.1-11.7-7.7-2.3-1.6-4.5-2.9-4.8-2.9-0.2 0-7.3-3.3-15.7-7.4-8.4-4-17.6-7.9-20.5-8.5-2.9-0.6-5.3-1.6-5.3-2.3 0-0.7 0.8-2 1.8-2.9 0.9-0.9 6.7-5.1 12.7-9.3 6.1-4.2 11.9-7.6 13-7.6zm-367.6 44c0.5 0 0.4 1-0.2 2.3-0.5 1.2-4 6.7-7.6 12.2-3.7 5.5-9.2 14.5-12.3 20-3.1 5.5-8.1 15.4-11.1 22-3 6.6-7.7 18.5-10.5 26.5-2.8 8-6.9 21.7-9.1 30.5-2.1 8.8-4.3 18.9-4.7 22.4-0.5 4-1.4 6.6-2.4 7.1-0.8 0.4-7.1 1.7-14 2.9-6.8 1.1-20.8 3-49.5 6.4l-24 15.9-1 50.1-12.5 3.3c-6.8 1.8-16.5 4.9-21.5 6.9-4.9 2-14 6.3-31.5 15.5l-3.3-5.7c-1.9-3.2-8.6-14.9-26.7-46.3l74.5-129.3 11-5.3c6.1-3 11.6-5.4 12.3-5.4 0.7 0 2.7-0.7 4.5-1.6 1.8-0.9 4.4-1.8 5.7-1.9 1.4-0.1 5.7-1.1 9.5-2.3 3.9-1.1 10.2-2.6 14-3.1 3.9-0.6 12.2-2 18.5-3.2 6.4-1.1 14.7-3 18.5-4 3.9-1.1 10.2-3.1 14-4.4 3.9-1.4 7.8-2.5 8.8-2.5 1 0 1.9-0.3 2-0.7 0.1-0.4 4.2-2.7 9-5 4.8-2.4 9.5-4.3 10.5-4.2 1 0 1.4-0.4 1-0.8-0.5-0.4 0.9-1.6 3-2.5 2-1 4.1-1.8 4.5-1.8 0.4 0 1.8-0.9 3-2 1.2-1.1 5.3-3.8 9-6 3.7-2.2 7-4.4 7.3-5 0.3-0.5 0.9-1 1.3-1zm672.1 2c0.3 0 1.9 2.2 3.5 4.8 1.5 2.6 11 18.7 20.9 35.7 9.9 17.1 27.2 47.2 38.4 67 11.3 19.8 21.3 37.7 24.2 43.5l-6.2 4c-3.4 2.3-6.8 4.1-7.5 4-0.7 0-1.2 0.4-1.2 0.8 0 0.4-4.2 4-9.3 8-5.1 4-9.6 7.6-10 8-0.4 0.4-2.4 2.5-4.5 4.6-2.1 2.1-4.3 4.4-4.9 5-0.7 0.6-4.7 5.4-9 10.6-4.3 5.2-13.2 15-19.8 21.8-6.6 6.7-12.6 12.2-13.3 12.2-0.7 0-1.3 0.5-1.3 1 0 0.6-1 1.9-2.2 3-1.2 1.2-3.7 2.7-5.5 3.5-1.8 0.9-3.3 1.7-3.3 2 0 0.3 0.6 0.2 1.3-0.2 0.7-0.5 1-0.4 0.6 0.2-0.4 0.6-3.3 2.4-6.5 4-3.2 1.7-6.3 3.6-6.8 4.2-0.6 0.7-4.7 3.3-9.1 5.8-4.4 2.5-8.7 4.5-9.7 4.5-1.1 0-1.5 0.5-1 1.3 0.5 0.8 0.2 1-1 0.5-1-0.4-2-0.3-2.3 0.2-0.2 0.6-4.2 2.9-8.7 5.2-4.5 2.2-12.8 5.6-18.3 7.5-5.5 1.9-10.3 3-10.7 2.6-0.4-0.4 0.1-3.7 1.1-7.3 1-3.6 2.1-8.6 2.5-11.2 0.6-4.7 0.7-4.8 4.1-4.8 2 0 4.2-0.2 5-0.5 0.9-0.3 1.5-1.7 1.5-3.5 0-1.6-0.4-4.2-1-5.7-0.5-1.5-0.9-2.9-0.7-3 0.1-0.1 6.8-0.9 14.7-1.8 8-0.8 18.1-2 22.5-2.5 4.4-0.6 11.9-2 16.5-3 7-1.6 9.8-2.9 15.5-7 3.9-2.7 7.4-5 7.8-5 0.4 0 2.1-1.1 6.7-5l0.1-47.5-4.8-3.5c-2.6-2-7.9-5.6-11.8-8.1-3.8-2.5-7.9-4.8-9-5.2-1.1-0.4-7.4-1.3-14-2.2-6.6-0.8-17.1-2.1-23.5-2.9-6.3-0.9-14-2-23-3.6l2-5c1.1-2.7 1.8-5.7 1.5-6.5-0.2-0.8-2.3-1.8-4.6-2.2-2.3-0.5-4.5-1.5-5-2.5-0.5-1-0.9-2.9-0.9-4.3 0-1.4-0.8-5.3-1.8-8.7-1.1-3.5-3.5-11.6-8.7-29.8l5.5-5.5c3.1-3.1 7-6.5 8.8-7.8 1.8-1.2 3.2-2.7 3.2-3.4 0-0.7 0.4-1.4 0.9-1.5 0.5-0.2 3.8-3.9 7.3-8.3 3.5-4.4 12.2-14 19.3-21.3 7.2-7.4 16.2-15.7 20-18.5 3.8-2.9 11-7.8 16-10.9 5-3.2 9.3-5.8 9.5-5.8zm-380.5 29.7c1.7 0.3 8.2 1.7 14.5 3.1 6.4 1.4 14.7 3.9 18.5 5.5 3.9 1.6 9.1 3.6 11.5 4.5 2.5 1 5 2.1 5.5 2.5 0.6 0.4 5.1 3.1 10 5.9 5 2.8 11.7 7.2 15 9.7 3.3 2.5 10.3 8.6 15.4 13.6 5.2 5 11.9 12.2 15 16 3.2 3.9 7.5 10.1 9.7 13.8 2.5 4.3 3.6 7.1 2.9 7.6-0.5 0.5-3.7 1.9-7 3.1-3.3 1.3-8.5 3.6-11.7 5.2-3.2 1.5-8.8 4-12.5 5.3-3.7 1.4-8.3 2.6-10.3 2.5-1.9 0-4.2 0.6-5.1 1.3-1 0.7-1.9 2.6-2 4.2-0.3 2.5-1.4 3.6-5.9 6.2-3 1.8-6 3.7-6.7 4.3-0.7 0.6-1.5 1-1.8 1-0.2 0-0.5-3.1-0.5-7 0-4.9-0.4-7.4-1.5-8.5-1.1-1.1-3.7-1.5-10.2-1.5-4.8 0-9.4 0.5-10.3 1-1.2 0.8-1.5 4.4-2.1 38.5l-3.7 4c-2.1 2.2-6.4 7.2-9.7 11-3.2 3.9-11.3 12.5-17.9 19.3-6.6 6.7-12.4 12.3-12.8 12.2-0.4 0-0.9-18.9-1-42-0.2-36.1-0.5-42.2-1.8-43-0.8-0.5-5.1-0.9-9.5-0.9-4.4 0-8.6 0.4-9.5 0.9-1.2 0.8-1.5 4.7-1.8 22.7-0.1 12-0.7 22.3-1.2 22.8-0.5 0.6-2.1-3-4-9.5-1.7-5.8-4.9-16.2-7-23.2-2.4-7.8-4.5-13-5.5-13.3-0.8-0.3-5.6-0.5-10.7-0.5-5.1 0-9.9 0.5-10.8 1-1.3 0.8-1.5 8.6-1.5 59.7 0 32.4 0.3 59.9 0.5 61.2 0.5 2-0.1 2.6-4.5 4.2-2.7 1.1-9 3.1-14 4.4-4.9 1.4-18 4.1-29 6.1-11 2-23.1 4.5-27 5.5-3.8 1.1-7.9 1.9-9 1.9-1.5 0-3.3-2.7-13.8-23.5l-0.7-97.5h7.5c6.2 0 7.9-0.3 9.5-2 1.7-1.6 2-3.3 2-9.5 0-6.1-0.3-7.8-2-9.5-1.5-1.5-3.3-2-13-2l2.1-5.2c1.2-2.9 2.7-6 3.4-6.8 0.7-0.8 2.9-4.6 5-8.5 2.1-3.8 5.6-9.3 7.7-12.2 2.1-2.9 4.9-5.9 6.1-6.7 1.2-0.8 5.6-1.9 9.7-2.5 4.2-0.6 13.6-2.3 21-3.7 7.5-1.4 18.3-3.8 24-5.4 5.8-1.6 13.9-4.3 18-6 4.2-1.7 13.8-6.3 21.5-10.3 7.7-4 18.1-9.9 23-13.1 5-3.2 12-8.2 15.5-11.2 3.6-2.9 7.7-5.7 9-6.2 1.4-0.5 3.9-0.8 5.5-0.5zm224.8 91.3c0.4 0 1.2 1.7 1.8 3.8 0.5 2 1.3 5.5 2.4 11.7l-5-3.8c-2.7-2.1-6.6-4.4-8.6-5-2.1-0.6-3.5-1.5-3.3-1.9 0.3-0.4 1.4-0.8 2.5-0.8 1.1 0 3.6-0.9 5.7-2 2.1-1.1 4.1-2 4.5-2zm-19.3 28c0.8 0 2.4 0.6 3.4 1.3 1.3 0.9 2.2 3.9 3.2 10.7 0.8 5.2 2 9.9 2.7 10.3 0.7 0.5 5.3 0.6 19.2-0.3l0.8 3.8c0.4 2 0.7 9.7 0.7 30.2h-8.7c-4.8 0-9.8 0.3-11 0.5-1.9 0.4-2.3 1.4-2.7 5.3-0.3 2.6-1 7.6-1.5 11.2-0.6 4.3-1.6 7-2.8 7.8-0.9 0.7-2.5 1.3-3.5 1.2-1.5 0-1.8-1-1.8-7.5 0-6.9-0.2-7.7-5.9-14l-0.1-33.5 3.6-4.7c3.4-4.6 3.5-5 2.9-10.8-0.3-3.3-0.8-6.9-1-8-0.3-1.1-0.2-2.3 0.2-2.7 0.4-0.4 1.4-0.8 2.3-0.8zm-90.7 3c0.4 0 0.7 1.7 0.7 3.8 0 2-2.9 21.5-6.5 43.2-3.6 21.7-6.8 42.1-7.2 45.3-0.6 4.7-0.4 6 0.7 6.8 0.9 0.5 5.4 0.9 10 0.9 4.7 0 9.1-0.3 9.8-0.7 0.8-0.5 2.3-6.2 5.7-26.3h8.5l-0.6 3.3c-0.3 1.8-1.3 5-2.3 7.2-0.9 2.2-2 5.3-2.4 6.8-0.3 1.5-2.5 6.9-4.8 12-2.3 5.1-5.1 10.6-6.2 12.2-1.2 1.7-3 4.8-4.1 7.1-1.1 2.2-5.9 8.9-10.6 14.9-4.6 5.9-12.3 14.4-17 18.8-4.6 4.4-11.6 10.3-15.5 13.2-3.8 2.8-9.9 7-13.5 9.2-3.5 2.2-9.2 5.4-12.5 7.1-3.3 1.7-8.9 4-12.5 5.2-3.5 1.2-6.9 2.6-7.5 3.1-0.5 0.5-5.5 2-11 3.3-5.5 1.3-13.2 2.9-17.2 3.5-4 0.6-12.8 1.1-19.5 1.1-6.7 0-16.1-0.5-20.8-1-4.6-0.6-13-2-18.5-3.1-5.5-1.1-11.9-2.9-14.2-4-2.3-1-4.7-1.9-5.3-1.9-0.5 0-1.7-0.4-2.7-0.8-1-0.5-6-2.9-11.3-5.3-5.2-2.4-9.7-4.6-10-5-0.2-0.3-3.2-2.3-6.5-4.6-3.3-2.2-9.3-6.7-13.5-10-4.1-3.3-9.1-7.6-11.2-9.6-2.1-2-3.8-4-3.8-4.4 0-0.4 4.6-1.8 10.3-3 5.6-1.3 15.9-3.2 22.7-4.3 6.9-1.2 17.5-3.5 23.5-5.1 6.1-1.6 14.2-4.1 18-5.6 3.9-1.4 14-6.1 22.5-10.4 8.6-4.3 19.8-10.6 25-14 5.3-3.4 12.7-8.7 16.5-11.7 3.9-3.1 10-8.3 13.5-11.6 3.6-3.4 7.9-7.2 9.5-8.6 1.7-1.4 3.5-3.4 4-4.4 0.6-1 1.6-2 2.3-2.2 1-0.3 1.2 2.8 1.2 13.1 0 10.7 0.4 13.8 1.5 15 1.2 1.1 3.8 1.5 10.3 1.5 4.8 0 9.4-0.4 10.2-1 1.3-0.7 1.6-5 2-51h15v24.5c0 20.5 0.3 24.8 1.5 26 1.2 1.1 3.8 1.5 10.3 1.5 4.8 0 9.4-0.4 10.2-1 1.3-0.8 1.6-7 1.8-43.7 0.3-38.9 0.5-42.9 2-44.4 1-1 5.6-3.8 10.2-6.3 4.7-2.5 8.9-4.5 9.3-4.6zm-336.3 23h22v35h-22zm396 0v35l-11.4-0.5-2.8-16c-1.5-8.8-2.5-16.5-2.3-17.2 0.3-0.9 3-1.3 16.5-1.3zm311.3 7.1c0.4-0.1 1.6 1.6 4.5 7.4l-53.4 92.5c-29.4 50.9-62 107.4-72.6 125.5-10.5 18.2-21.9 37.5-25.3 43-3.4 5.5-7.6 11.3-9.3 12.8-1.7 1.5-4 2.7-5 2.7-0.9 0-2.2 0.5-2.7 1-0.5 0.5-2.5 1.9-4.5 3-1.9 1.1-5 2.8-7 3.8-1.9 0.9-3.9 2.3-4.5 3-0.5 0.6-3.9 2.8-7.5 4.7-3.5 1.9-6.1 3.5-5.7 3.5 0.4 0-2.7 2.8-7 6.2-4.3 3.4-10.5 8.6-13.8 11.6-3.3 2.9-6.3 5.7-6.7 6.1-0.4 0.3-4 4.7-8.1 9.6-4.1 5-11 12.9-15.3 17.6-4.3 4.6-11.7 12-16.4 16.4-4.6 4.3-10.9 9.5-14 11.5-3 2.1-7.3 4.7-9.5 5.9-2.2 1.2-6.2 3.8-9 5.8-2.7 1.9-11.3 6.5-19 10.3-7.7 3.7-17.1 7.9-21 9.4-3.8 1.4-10.3 3.4-14.5 4.5-4.1 1.1-17.6 3.9-30 6.2-15.1 2.7-26.9 5.5-36 8.5-7.4 2.5-20 7.6-42.5 18.5l-133-0.2c-73.1 0-137-0.4-142-0.8-4.9-0.4-8.3-0.9-7.5-1.3 0.9-0.3 5.1-1.7 9.5-3.2 4.4-1.4 8.8-2.6 9.8-2.6 1 0 1.9-0.3 2-0.7 0.1-0.4 4.2-2.7 9-5 4.8-2.4 9.5-4.3 10.5-4.2 1 0 1.4-0.4 1-0.8-0.5-0.4 0.9-1.6 3-2.5 2-1 4.1-1.8 4.5-1.8 0.4 0 1.8-0.9 3-2 1.2-1.1 4.9-3.7 8.2-5.7 3.3-2 10.9-7.3 16.8-11.7 6-4.5 10.8-8.4 10.8-8.8 0-0.4 2.9-3.1 6.4-6 3.6-2.9 6.5-5.7 6.5-6.3 0.1-0.5 3.7-4.8 8-9.5 4.4-4.7 8.1-8.9 8.1-9.5 0-0.5 4.8-5.9 10.7-11.8 5.9-6 15.1-14.2 20.5-18.3 6.1-4.6 10.7-7.4 12.2-7.4 1.4 0 8.1 1.2 14.8 2.7 8.8 1.9 15.3 2.7 23 2.8 9 0 11-0.3 12.5-1.8 1.5-1.5 1.8-3.9 2.3-31.2l4.2-1.7c2.3-0.9 8.1-2.6 12.7-3.7 4.7-1 10.5-2.2 17-3.1l0.1 16.8c0 9.2 0.4 18.4 1 20.5 0.9 3.6 1.1 3.7 6.7 4.4 3.2 0.3 8.9 0.3 12.7 0 3.9-0.4 14.9-2.2 24.5-4.2 9.7-1.9 20.8-4.7 24.8-6 4-1.4 7.7-2.5 8.2-2.5 0.6 0 5.1-1.6 10-3.5 5-1.9 10.8-3.9 13-4.5 4-1 4.1-0.9 6.8 3 1.5 2.2 6.3 8.8 10.7 14.5 4.4 5.8 9.6 12.8 11.5 15.4 2 2.7 5.4 7.3 7.6 10.2 2.3 3 5.4 6.5 7 7.7 1.6 1.3 6.9 4.6 11.7 7.3 7 3.9 9.7 4.9 13.5 5 3.3 0 5.6-0.6 7.5-2 1.5-1.2 3.1-2.1 3.5-2.1 0.4 0 3-1.5 5.7-3.4 2.8-1.8 8.2-4.9 12-6.8 3.9-2 8.3-4.7 9.8-6.2 1.5-1.4 3.2-4.3 3.7-6.3 0.5-2.1 1.4-8.3 3.1-23.8l-4.4-11.5c-2.4-6.3-7.2-18.5-10.6-27-3.3-8.5-7.2-18-10.7-26.5l3.6-2.6c1.9-1.4 9.8-8.6 17.4-16 7.7-7.4 18.5-18.8 24.1-25.4 5.6-6.6 12.4-15.1 15.1-18.8 2.7-3.8 5.6-7.9 6.4-9.1 0.9-1.3 2.9-4.2 4.5-6.7 1.6-2.4 4.2-6.4 5.9-8.9 1.7-2.5 7.2-13 12.3-23.5 5.1-10.4 9.3-19.4 9.3-20 0-0.5 4.9-1.8 10.8-2.8 5.9-1.1 14.1-2.8 18.2-3.9 4.2-1.1 8.3-2 9.2-2.1 0.9-0.1 2-0.5 2.4-0.9 0.4-0.4 2.1-0.8 3.6-0.8 1.6 0 2.8-0.3 2.8-0.7 0-0.4 1.5-1.4 3.3-2.1 1.8-0.8 8.2-3.7 14.2-6.4 6.1-2.7 11.9-5.4 13-6 1.1-0.6 3.4-1.8 5-2.7 1.6-0.9 3.9-2.4 5-3.4 1.1-1 4.7-3.4 8-5.3 3.3-2 9.4-6.1 13.5-9.2 4.1-3.1 11.3-9.2 16-13.5 4.7-4.2 8.9-7.7 9.3-7.7 0.4 0 0.5-0.4 0.2-1-0.2-0.5 0.3-1.2 1.3-1.5 1-0.3 2.3-1.6 3-3 0.7-1.4 4-5.7 7.4-9.7 3.4-4 11.1-12.4 17.2-18.6 6.2-6.2 13.8-13.4 17.1-16 3.3-2.6 9.6-7 14-9.9 4.4-2.9 8.4-5.2 8.8-5.2zm-540.4 14.4c0.5 0.6 3.4 9.2 12.1 37.5l-3.2 2.4c-1.8 1.3-4.7 3.1-9.8 5.6v-23.2c0-13.6 0.4-22.9 0.9-22.3zm-313.9 41c0.9 0.2 4.7 0.7 8.5 1.1 3.9 0.3 8.1 1.2 9.4 1.8 1.2 0.6 2.5 2 2.7 3.1 0.3 1.1 1.1 5.4 1.8 9.5 0.8 4.1 3 13.6 5.1 21 2 7.4 5.9 19.6 8.6 27 2.7 7.4 9.7 23 15.5 34.5 6.3 12.6 13 24.4 23 38l-4.5 3.9c-2.5 2.2-9.2 7-14.8 10.8-5.6 3.7-10.3 6.6-10.3 6.3 0-0.3-1.6 0.8-3.7 2.4-2.1 1.6-5.2 3.6-7 4.5-1.8 0.9-3.9 1.6-4.8 1.6-0.8 0-1.7 0.7-2 1.5-0.2 0.8-1 1.5-1.7 1.5-0.7 0-5.3 2.1-10.3 4.5-4.9 2.5-14.4 6.2-21 8.4-6.6 2.2-14.7 4.3-18 4.6-5.8 0.7-6 0.6-7.5-2.2-0.9-1.5-10.8-18.5-22-37.8-11.2-19.2-30.1-51.9-42.1-72.5-12.2-21.2-21.3-37.9-20.8-38.5 0.4-0.5 2.9-2 5.6-3.3 2.7-1.3 5.5-2.7 6.3-3.2 0.9-0.5 5.8-3 11-5.5 5.3-2.5 10.1-4.5 10.8-4.5 0.7 0 2.7-0.7 4.5-1.6 1.8-0.9 4.6-1.8 6.2-2 1.7-0.2 6.2-1.3 10-2.4 3.9-1.1 14-3.1 22.5-4.5 8.6-1.4 18.2-3.2 21.5-4 3.3-0.8 8.3-2.1 11-2.9 2.8-0.8 5.7-1.3 6.5-1.1zm596.2 7.5c0.4 0 0.8 0.4 0.8 0.8 0 0.4-0.7 3.9-1.6 7.7-0.9 3.9-3.2 11.3-5 16.5-1.9 5.2-5 13.1-6.9 17.5-1.9 4.4-3.9 8.7-4.3 9.5-0.5 0.8-3.3 2.7-6.3 4.2-2.9 1.5-6 3-6.9 3.3-0.8 0.3-3.3 1.7-5.5 3.1-2.2 1.3-5.5 3.2-7.4 4.2-1.9 0.9-4.4 2.6-5.6 3.7-1.2 1.1-4.5 3.1-7.3 4.5-2.8 1.4-4.9 2.7-4.7 3 0.2 0.3-1.7 2-4.1 3.8-2.4 1.8-4.4 2.8-4.4 2.2 0-0.5 2.3-4 5-7.7 2.7-3.7 5.8-7.9 6.9-9.3 1-1.4 5.3-9 9.5-17 4.2-8 8.6-17 9.7-20 1.2-3 3.3-8.9 4.8-13.2 2.5-7.3 2.8-7.7 6.1-8.2 2-0.3 5.8-0.6 8.5-0.6 3.3 0 6.8-0.8 10-2.4 2.8-1.3 5.7-3.1 6.4-4 0.8-0.9 1.8-1.6 2.3-1.6zm-499.1 4l3.2 1.7c2.3 1.2 6.6 1.9 25.9 2.8l5.3 14c2.9 7.7 6.8 17.2 8.5 21 1.8 3.9 4.1 8.3 5.1 9.8 1.9 2.6 1.9 2.8 0.2 4.8-1 1.2-3.8 3.5-6.3 5.2-2.4 1.7-6.1 4.6-8.2 6.4-2.1 1.8-4.3 3.3-5 3.3-0.7 0-2.6-2.4-4.2-5.2-1.6-2.9-4.9-9.3-7.3-14.3-2.5-4.9-5.6-11.9-6.9-15.5-1.4-3.6-3.4-9.2-4.5-12.5-1.2-3.3-2.9-8.1-4-10.7-1-2.6-1.8-6.1-1.8-7.8zm71.2 84.1c0.4 0 1.5 1.3 2.5 2.9 0.9 1.6 5.3 6.8 9.7 11.6 4.4 4.8 12.3 12.3 17.5 16.7 5.2 4.4 12.2 9.9 15.5 12.3 3.3 2.3 12.8 8.2 21 12.9 8.3 4.7 17 9.3 19.5 10.2 2.5 0.9 6.8 2.7 9.5 3.9 2.8 1.2 11.5 4 19.5 6.3 8 2.2 18.6 4.9 23.5 5.9 7.5 1.5 14.1 1.7 40 1.7 28.3 0 31.9-0.2 41-2.2 5.5-1.3 14.1-3.5 19-4.9 5-1.4 12.8-4.1 17.5-5.9 4.7-1.8 13.2-5.6 19-8.4 5.8-2.8 12.8-6.3 15.5-7.7 2.8-1.5 5.2-2.9 5.5-3.3 0.3-0.3 1.2-1 2.1-1.6 0.9-0.5 4.1-2.6 7-4.7 3-2 7.3-5 9.7-6.7 2.3-1.7 4.7-2.9 5.3-2.8 0.6 0.1-4.7 6-11.7 13-7.1 7-15.6 14.8-18.9 17.2-3.3 2.5-8.5 5.9-11.5 7.6-3 1.7-7.7 4.7-10.5 6.6-2.7 1.9-11.3 6.6-19 10.3-7.7 3.7-17.1 8-21 9.4-3.8 1.4-10.4 3.5-14.5 4.6-4.1 1.1-17.2 3.8-29 6-11.8 2.2-22.6 4-24 4.1-1.4 0-9.7-1.3-18.5-2.9-8.8-1.6-19.8-4.1-24.5-5.5-4.7-1.4-12.3-3.7-17-5.1-4.7-1.5-8.9-3-9.5-3.6-0.5-0.5-1.7-1-2.5-1-0.8 0-7.8-3-15.5-6.8-7.7-3.8-18-9.3-23-12.3-4.9-3-15.1-10-22.5-15.6-7.4-5.6-17.5-13.9-22.4-18.4-4.9-4.6-12.9-12.9-17.8-18.4-8.4-9.6-8.7-10-7-11.8 0.9-1 5.1-4.2 9.2-7 4.2-2.9 8.2-5.5 9-5.9 0.8-0.3 1.8-0.6 2.3-0.7zm-73.9 68.9c0.3 0 10.7 10.1 45.7 44.5l-6.1 14.5c-3.4 8-6.8 16.6-7.5 19-0.7 2.5-2.1 6.3-3.2 8.5-1.1 2.2-3.2 7.5-4.7 11.8-2 5.9-2.6 9.7-2.6 16 0 4.5 0.5 11.2 1 14.7 0.6 3.6 1.6 7.2 2.4 8 0.8 0.9 4.9 3.7 9.3 6.3 4.3 2.6 8.3 4.7 8.8 4.7 0.6 0 3.3 1.5 6 3.2 2.8 1.8 6.9 4.3 9.3 5.6 2.3 1.2 5.7 2.3 7.5 2.3 1.8 0 6.7-1.8 11.5-4.3 4.6-2.3 10.2-5.8 12.5-7.8 2.2-1.9 12.1-14.1 21.9-27.2 17-22.6 18-23.7 21.1-23.7 1.7 0.1 4 0.4 5.1 0.8 1.6 0.6 1.1 1.2-3 5-2.7 2.3-5.2 4.6-5.6 5-0.4 0.3-4.2 4.9-8.5 10.1-4.3 5.3-14.3 16.2-22.3 24.4-11.4 11.6-17 16.5-26.2 22.7-6.5 4.4-11.8 7.7-11.8 7.4 0-0.2-1.7 0.8-3.7 2.4-2.1 1.6-5.3 3.6-7 4.5-1.8 0.9-4 1.6-4.8 1.6-0.8 0-1.5 0.5-1.5 1 0 0.6-0.8 1.3-1.7 1.7-1 0.3-5.8 2.5-10.8 4.9-4.9 2.4-13.7 5.9-19.5 7.9-5.8 1.9-14.1 4.2-18.5 5-4.4 0.9-9.1 1.5-10.5 1.5-2.2 0-5.3-4.9-30.4-48.2-15.4-26.5-34.4-59.4-42.3-73-7.9-13.6-14.3-25.1-14.3-25.5 0-0.4 2.1-1.4 4.7-2.1 2.7-0.7 10.3-3.1 17.1-5.2 6.7-2.2 12.9-4 13.7-4 0.8 0 1.6-0.3 1.8-0.7 0.1-0.4 4.1-2.7 9-5 4.8-2.3 9.5-4.2 10.5-4.2 0.9 0 1.4-0.3 0.9-0.8-0.4-0.4 0.9-1.5 3-2.5 2.1-1 4.1-1.8 4.6-1.8 0.4 0 1.7-0.9 3-2 1.2-1.1 4.9-3.7 8.2-5.7 3.3-2 10.2-6.7 15.3-10.4 5-3.8 9.7-6.9 10.2-6.9 0.6 0 1.2-0.9 1.4-2 0.3-1.1 0.7-2 1-2zm561.3 136.6c0.2 0.2-2.5 5.7-5.8 12.2-3.4 6.5-13.8 25-23.2 41.2-9.4 16.3-18.4 32-23.3 40.5l-32.9 0.3c-18.2 0.2-35.5 0-44-1l3-1.2c1.7-0.7 6.8-2.8 11.5-4.6 4.7-1.7 15-6.5 23-10.6 8-4 18.8-10.1 24-13.5 5.2-3.4 12.7-8.6 16.5-11.7 3.9-3.1 9.9-8.3 13.5-11.6 3.6-3.3 7.9-7.2 9.6-8.6 1.7-1.3 3.6-3.5 4.2-4.7 0.7-1.2 4-5.5 7.4-9.5 3.3-4 8.4-9.6 11.1-12.5 2.8-2.8 5.2-5 5.4-4.7z"/>
		<path id="Path 5" class="s5" d="m512 317.5c-6.9 0.6-13.9 1.7-15.5 2.2-1.6 0.6-7.2 2.1-12.3 3.2-5 1.2-10.1 2.1-11.2 2.1-1.1 0-2.2 0.3-2.4 0.7-0.2 0.5-3.9 2.1-8.2 3.7-4.4 1.6-14.8 6.2-23.2 10.2-8.3 4.1-15.4 7.8-15.7 8.4-0.3 0.6-2.8 2.1-5.5 3.5-2.8 1.4-6 3.4-7.3 4.6-1.2 1.1-6 4.8-10.6 8.2-4.8 3.5-14.8 12.8-23 21.5-8 8.4-15.9 17.2-17.4 19.5-1.6 2.3-3.7 5.1-4.7 6.2-1.1 1.1-2 2.3-2 2.8 0 0.4-2.3 4.2-5 8.5-2.8 4.2-5.1 8.3-5 9 0 0.6-0.4 1.2-1 1.2-0.6 0-1.5 1.5-2.2 3.3-0.7 1.7-3 6.8-5.1 11.2-2.2 4.4-5 11.1-6.4 15-1.3 3.9-3 9-3.7 11.5l-1.4 4.5c8.3 7.8 11.6 12 12.7 14.5 1.1 2.5 2.4 7.4 3 11 0.6 3.6 1.1 9.1 1.1 12.3v5.7h22v-21c-14.8-0.4-17.3-0.9-18-2-0.5-0.8-1-5.1-1-9.5 0-4.4 0.5-8.7 1-9.5 0.8-1.2 4.8-1.6 22.1-2l21.2-0.5c2.9-8.5 4.6-11.9 5.7-13 1.1-1.1 2-2.6 2-3.2 0-0.7 3.3-6.4 7.4-12.5 4.1-6.2 11.7-15.8 16.9-21.3 5.2-5.5 12.8-12.6 16.8-15.8 4.1-3.1 9.9-7.4 12.9-9.3 3-2 10.2-6 16-9 5.8-2.9 11.1-5.4 11.7-5.4 0.7 0 3.1-0.9 5.3-2 2.2-1.1 10.2-3.6 17.7-5.5 9.1-2.3 18.4-3.9 27.3-4.7 10-0.8 16.7-0.8 26 0 7.6 0.7 17.7 2.4 26 4.6 7.4 1.9 17.2 5 21.7 7 4.6 2 9 3.6 9.8 3.6 0.8 0 1.8 0.6 2.2 1.3 0.5 0.6 3.3 2.4 6.3 3.9 3 1.4 6.2 3.4 7 4.3 0.8 0.9 2 1.6 2.5 1.5 0.5 0 3.7 1.9 7 4.3 3.3 2.4 9.5 7.6 13.7 11.6 4.3 3.9 10.6 10.1 13.9 13.9 3.4 3.7 8 9.1 10.3 12.1 2.3 2.9 4.4 5.9 4.8 6.5 0.4 0.6 0.9 1.8 1.2 2.6 0.4 0.8 1.5 2.9 2.6 4.5 1.1 1.6 3.7 6.6 5.9 11 2.1 4.4 4.5 8.3 5.4 8.8 1 0.4 4.5 0.7 7.9 0.7 3.5 0 6.8 0.4 7.5 0.8 0.7 0.4 1.9 3.6 2.7 7.2 0.8 3.6 2.2 10.8 3.1 16 0.8 5.2 2 11.9 2.5 14.8l1 5.2h17.5c1.2-21.5 2.1-28.1 2.9-29.7 0.7-1.6 2.5-4.2 3.8-5.8 1.4-1.6 4.8-4.6 7.7-6.5 4.8-3.2 5.2-3.7 4.6-6.5-0.4-1.6-2.5-7.4-4.6-12.7-2.1-5.4-6.7-15.2-10.2-21.9-3.4-6.7-7-13.5-7.9-15.2-1-1.8-2.4-3.6-3.1-4.2-0.7-0.6-1.8-2.4-2.5-4-0.6-1.6-2.3-4.1-3.7-5.5-1.4-1.4-2.5-2.8-2.5-3.3 0-0.4-2.1-3.1-4.6-6-2.5-2.8-5.4-6.4-6.3-7.9-0.9-1.5-2.6-3.3-3.9-4-1.2-0.7-2.2-1.6-2.2-2.1 0-0.4-3-3.6-6.8-7.1-3.7-3.5-10-9-14-12.2-4-3.3-7.3-6.2-7.2-6.7 0-0.4-0.4-0.7-0.9-0.7-0.5 0-3-1.6-5.5-3.5-2.5-1.9-5.1-3.5-5.6-3.5-0.5 0-3.8-2.1-7.3-4.6-3.4-2.5-7.3-4.8-8.7-5.1-1.4-0.3-3-1-3.5-1.7-0.5-0.6-3.5-2.2-6.5-3.4-3-1.3-7.3-3.3-9.5-4.4-2.2-1.2-7.8-3.4-12.5-5-4.7-1.6-12.8-4-18-5.3-5.2-1.4-12.4-3.2-16-4-3.6-0.8-11.2-1.9-17-2.5-5.8-0.6-17-1-25-0.9-8 0.1-20.1 0.7-27 1.4zm247.6 187c-0.3 0.8-0.6 4.6-0.6 8.5 0 4 0.4 7 1 7 0.5 0 1.4-1.2 1.9-2.8 0.5-1.5 0.7-5.3 0.5-8.5-0.3-3.1-0.9-5.7-1.4-5.7-0.4 0-1.1 0.7-1.4 1.5zm-419.6 62.8c0 2.3-0.6 7.1-1.4 10.7-0.7 3.6-2 7.9-2.9 9.5-0.9 1.6-2.8 4.4-4.4 6-1.5 1.7-4.3 4.1-6 5.5l-3.3 2.5c2.5 8.5 3.8 12.1 4.5 13.5 0.7 1.4 1.8 4.3 2.5 6.5 0.7 2.2 3.5 8.7 6.2 14.5 2.7 5.8 5.5 11.2 6.3 12 0.7 0.8 1.6 2.6 2 4 0.5 1.4 1.2 3 1.7 3.5 0.5 0.5 2.9 4.1 5.4 8 2.6 3.9 5.7 8.1 7 9.5 1.3 1.4 2.4 3.1 2.4 3.8 0 0.6 3.5 5.1 7.8 10 4.2 4.8 8.8 9.8 10.2 11.2 1.3 1.4 6.5 6.2 11.5 10.8 4.9 4.5 9.6 8.3 10.3 8.2 0.6 0 1.4 0.7 1.7 1.5 0.3 0.8 1.2 1.5 2 1.5 0.8 0 1.5 0.5 1.5 1 0 0.5 2.5 2.7 5.6 4.8 3.1 2 8 5.1 10.9 6.7 2.8 1.6 7.4 4.3 10.1 5.9 2.7 1.6 6 3.6 7.4 4.6 1.4 0.9 3.4 1.9 4.5 2.2 1.1 0.4 4.5 1.6 7.5 2.8 3 1.2 8.4 3.3 12 4.7 3.6 1.3 9.9 3.3 14 4.3 4.1 1.1 10 2.6 13 3.5 3 0.8 10.9 2.2 17.5 3.1 9.2 1.2 17.8 1.5 37 1.1 17.7-0.3 27.5-0.9 33.5-2.1 4.7-0.9 10.5-2.3 13-3 2.5-0.8 8.5-2.6 13.5-4.1 5-1.5 13.7-4.7 19.5-7.2 5.8-2.4 14.4-6.6 19.3-9.3 4.8-2.8 9-5 9.5-5 0.4 0 3.8-2.3 7.7-5 3.9-2.7 9.9-6.9 13.5-9.3 3.6-2.5 11.9-9.6 18.4-15.8 6.6-6.3 14.9-15 18.5-19.4 3.7-4.4 8-9.8 9.6-12 1.6-2.2 5.4-7.6 8.3-12 3-4.4 8.5-14.3 12.2-22 3.8-7.7 8-16.7 9.4-20 1.3-3.3 3-8 3.6-10.5 1.1-4 1-4.6-0.7-5.8-1-0.7-3.8-2.7-6.2-4.5-2.5-1.8-5.7-5.5-7.4-8.7-2.7-4.8-3.2-6.8-3.7-15.8l-0.5-10.2c-7.1 0-9.4 0.2-9.6 0.4-0.2 0.3 1 8.4 2.6 18.1 3 17.6 3 17.7 1 19.1-1.4 1-4.7 1.4-10.5 1.4-4.7 0-9-0.4-9.6-0.8-0.7-0.4-1.7-2.5-2.2-4.7-0.6-2.2-1.5-7.9-2.1-12.8-0.8-6.1-1.5-8.6-2.3-8.4-0.7 0.2-2.9 5.3-4.9 11.3-2 6-5.5 15.2-7.9 20.4-2.3 5.2-5 10.4-6 11.5-1 1.1-2.7 3.8-3.8 6-1.1 2.2-5 8-8.6 13-3.6 5-10.8 13.2-15.9 18.3-5 5.1-9.5 9.2-9.9 9.2-0.5 0-1 0.7-1.3 1.5-0.3 0.8-1.2 1.5-2 1.5-0.8 0-1.5 0.5-1.5 1 0 0.5-2.3 2.7-5.2 4.8-2.8 2-6 4.3-7.2 4.9-1.2 0.7-2.5 1.7-3.1 2.3-0.5 0.5-1.6 1-2.5 1-0.8-0.1-2.2 0.7-3 1.6-0.8 0.9-2.4 2.1-3.5 2.5-1.1 0.5-2.7 1.3-3.5 1.8-0.8 0.5-4.4 2.3-8 4-3.6 1.6-7.8 3.3-9.5 3.7-1.6 0.4-4.6 1.5-6.5 2.4-1.9 0.9-7.3 2.6-12 3.8-4.7 1.1-12.5 2.6-17.5 3.3-5.7 0.7-15.1 0.9-25.5 0.6-10.2-0.4-20.9-1.4-28-2.7-6.3-1.2-14.2-3.2-17.5-4.5-3.3-1.2-8.5-3.1-11.5-4.1-3-1-5.9-2.3-6.5-2.9-0.5-0.5-3.1-2-5.7-3.2-2.7-1.3-5.4-2.3-6-2.3-0.7 0.1-2.2-0.9-3.3-2.1-1.1-1.1-3.1-2.7-4.5-3.4-1.4-0.7-7-4.9-12.5-9.3-5.5-4.4-12.7-10.6-16.1-13.8-3.3-3.3-9.8-10.7-14.5-16.5-4.6-5.9-10.7-15.1-13.6-20.5-2.9-5.5-5.8-11.7-6.6-13.9l-1.4-4c-19.6-0.9-22.6-1.4-23.3-2.5-0.5-0.8-1-9.5-1-19.2v-17.8h-22zm419 0.5c0 1.5 0.4 4.4 0.8 6.5 0.4 2.1 1.1 3.8 1.5 3.8 0.4 0 0.7-1.5 0.7-3.3 0-1.8-0.2-4.7-0.4-6.5-0.2-1.8-0.9-3.2-1.5-3.2-0.6 0-1.1 1.2-1.1 2.7z"/>
		<path id="Path 6" class="s0" d="m433.5 477c-2.8 0.4-6.9 1.7-9.3 2.9-2.3 1.1-5.7 3.6-7.4 5.4-1.8 1.8-4.4 5.5-5.8 8.2l-2.5 5c0.1 78.5 0.3 83.4 1.8 86.8 0.9 2 3.6 5.8 6 8.3 2.3 2.6 5.8 5.4 7.7 6.4 1.9 1 6.2 2.3 9.5 2.9 4.4 0.8 7.6 0.8 12 0 3.3-0.6 7.6-1.9 9.5-2.9 1.9-0.9 5.7-4.2 8.3-7.1 2.7-3 5.2-7 5.7-8.9 0.5-1.9 1.2-21.5 1.5-43.5l0.8-40c-4.7-9.3-7.6-13.5-9.4-15.4-1.9-1.9-5.7-4.4-8.4-5.7-2.7-1.2-7.3-2.4-10-2.7-2.7-0.2-7.3-0.1-10 0.3zm-132.7 21.9l-3.3 2.9c-0.5 53.3-0.4 70.5-0.1 72.7 0.3 2.2 1.5 5 2.6 6.3 1.1 1.2 3.7 2.5 5.7 2.8 2.3 0.4 4.9 0.1 6.6-0.8 1.6-0.7 3.6-2.4 4.5-3.8 1.5-2.2 1.7-6.6 1.7-38 0-29.4-0.3-36.1-1.5-38.9-0.8-1.8-2.7-4-4.3-4.7-1.5-0.8-4-1.4-5.7-1.4-1.9 0-4.2 1.1-6.2 2.9zm395 12.2c-0.4 0.8-1.8 9.7-3.3 19.9-1.4 10.2-2.8 20-3.1 21.8l-0.4 3.2h15c-0.8-5-2.4-15.3-4-26-1.7-10.7-3.1-19.7-3.3-19.9-0.2-0.2-0.6 0.2-0.9 1z"/>
		<path id="Path 7" class="s1" d="m430.5 480.6c-2.8 0.8-6.1 2.2-7.5 3.1-1.4 0.9-3.6 2.8-4.9 4.2-1.2 1.5-3.4 4.7-4.7 7.3l-2.4 4.8c0 68.7 0.3 77.5 1.4 81.5 0.9 2.9 3.1 6.9 5.4 9.5 2.2 2.5 6.1 5.6 8.8 7 4 2 6.4 2.5 12.9 2.5 6.5 0 8.9-0.5 12.8-2.5 2.7-1.4 6.1-3.9 7.7-5.5 1.5-1.6 3.9-5 5.2-7.5 2.3-4.5 2.3-4.9 2.6-44.5 0.4-39.8 0.4-40-1.8-44.5-1.3-2.5-3.3-5.9-4.6-7.5-1.2-1.6-4.4-4.1-7.1-5.4-2.6-1.3-7.5-2.8-10.8-3.2-3.3-0.5-6.4-0.8-7-0.8-0.6 0-3.3 0.7-6 1.5z"/>
		<path id="Path 8" class="s4" d="m305.2 504.3l-5.3 5.2c0.6 65.7 0.7 67.4 2.6 69.4 1.3 1.4 3.2 2.2 5.2 2.1 1.7 0 3.9-0.7 4.7-1.5 1.3-1.2 1.5-2.8 1-7.3-0.4-4.2-0.2-6.5 1-8.7 1.3-2.4 1.6-6.5 1.6-21 0-14.6-0.3-18.6-1.6-21-1.3-2.4-1.5-4.8-1-11.5 0.4-6.1 0.2-8.9-0.7-9.8-0.6-0.7-1.4-1.3-1.7-1.2-0.3 0-2.9 2.4-5.8 5.2zm390.6 27.9c-0.4 1.3-1.2 5.7-1.8 9.6-0.5 4-1 8.2-1 9.3 0 1.6 0.7 2 3.5 2 2.1 0 3.5-0.5 3.5-1.3 0-0.6-0.7-5.7-1.5-11.2-0.8-5.5-1.6-10.2-1.8-10.4-0.1-0.2-0.6 0.7-0.9 2z"/>
		<path id="Path 9" class="s0" d="m434.9 496.7c-0.9 0.2-2.5 1.6-3.5 3.1-1.7 2.5-1.9 5.5-2.2 36.7-0.2 18.7-0.1 35.8 0.3 38 0.3 2.2 1.4 5.1 2.5 6.5 1.6 2.1 2.7 2.5 6.9 2.5 4 0 5.6-0.5 7.6-2.5 2.3-2.2 2.8-3.7 3.7-13 0.5-5.8 0.8-22.2 0.5-36.5-0.2-16.2-0.8-27.2-1.5-29.2-0.7-2-2.4-3.9-4.2-4.8-1.6-0.8-4.2-1.4-5.7-1.4-1.6 0.1-3.5 0.3-4.4 0.6z"/>
		<path id="Path 10" class="s4" d="m434.5 500.6c-1.9 1.4-2 2.7-2 39v37.6c3.9 3 6.2 3.9 7.7 3.8 1.5 0 3.4-0.7 4.2-1.5 0.9-0.8 1.9-2.7 2.3-4.3 0.5-1.5 0.8-17.3 0.8-35.2 0-17.9-0.3-33.7-0.8-35.3-0.4-1.5-1.4-3.4-2.2-4.2-0.8-0.8-3-1.5-4.8-1.5-1.7 0-4.1 0.7-5.2 1.6z"/>
	</g>
</svg>